<svg xmlns="http://www.w3.org/2000/svg" viewBox="0 0 139.88 34.92"><defs><style>.cls-1{font-size:24px;fill:#333;font-family:SignatraDEMO, Signatra DEMO;}.cls-2{letter-spacing:-0.03em;}.cls-3{font-family:SaltilloFREE, Saltillo FREE;}.cls-4{fill:#6f35a2;}.cls-5{fill:#e54282;}.cls-6{fill:#5832a4;}.cls-7{fill:#4c2c9c;}.cls-8{fill:#eb3737;}.cls-9{fill:#60319f;}.cls-10{fill:#e1438e;}.cls-11{fill:#f16024;}.cls-12{fill:#a53da2;}.cls-13{fill:#ea3855;}.cls-14{fill:#ea3339;}.cls-15{fill:#ef502b;}.cls-16{fill:#d34aaf;}.cls-17{fill:#e34cad;}.cls-18{fill:#e83f74;}.cls-19{fill:#2668e1;}.cls-20{fill:#e93a60;}.cls-21{fill:#ed4430;}.cls-22{fill:#3742bb;}.cls-23{fill:#e8354a;}.cls-24{fill:#dbabc5;}.cls-25{fill:#e93d6b;}.cls-26{fill:#9e91d6;}.cls-27{fill:#f5751a;}.cls-28{fill:#dd4597;}.cls-29{fill:#1e3cb9;}.cls-30{fill:#423eb5;}.cls-31{fill:#c048b0;}.cls-32{fill:#9e44b1;}.cls-33{fill:#ea3343;}.cls-34{fill:#b047b0;}.cls-35{fill:#4d38ad;}.cls-36{fill:#ffaf00;}.cls-37{fill:#eb3638;}.cls-38{fill:#442999;}.cls-39{fill:#c449b0;}.cls-40{fill:#f498a1;}.cls-41{fill:#fca408;}.cls-42{fill:#a76ac2;}.cls-43{fill:#cfa9cf;}.cls-44{fill:#e93343;}.cls-45{fill:#c39dcf;}.cls-46{fill:#acbaec;}.cls-47{fill:#f79b68;}.cls-48{fill:#f59887;}.cls-49{fill:#f89c53;}.cls-50{fill:#f39c97;}.cls-51{fill:#94b5f0;}.cls-52{fill:#f69b79;}.cls-53{fill:#a376c7;}.cls-54{fill:#a9a4e0;}.cls-55{fill:#ef522c;}.cls-56{fill:#feb41a;}.cls-57{fill:#bb5ab8;}.cls-58{fill:#9a7fce;}.cls-59{fill:#fa960c;}.cls-60{fill:#ee4e2f;}.cls-61{fill:#f5791b;}.cls-62{fill:#fcab32;}.cls-63{fill:#ee512e;}.cls-64{fill:#fbad0a;}.cls-65{fill:#feab03;}.cls-66{fill:#ee502f;}.cls-67{fill:#f89613;}.cls-68{fill:#afb0e5;}.cls-69{fill:#fba643;}.cls-70{fill:#ea3539;}.cls-71{fill:#f57d1d;}.cls-72{fill:#b891cc;}.cls-73{fill:#1962e3;}.cls-74{fill:#fdb905;}.cls-75{fill:#f16725;}.cls-76{fill:#f36e20;}.cls-77{fill:#f3acb6;}.cls-78{fill:#f89115;}.cls-79{fill:#e82734;}.cls-80{fill:#f0572a;}.cls-81{fill:#95359f;}.cls-82{fill:#fba80d;}.cls-83{fill:#ef532c;}.cls-84{fill:#f26623;}.cls-85{fill:#f05c2a;}.cls-86{fill:#952a7f;}.cls-87{fill:#ed4731;}.cls-88{fill:#2a41bc;}.cls-89{fill:#a33077;}.cls-90{fill:#f281a6;}.cls-91{fill:#4832a7;}.cls-92{fill:#412da0;}.cls-93{fill:#e148a0;}.cls-94{fill:#f7a180;}.cls-95{fill:#f79864;}.cls-96{fill:#b9409f;}.cls-97{fill:#aa3686;}.cls-98{fill:#b13b94;}.cls-99{fill:#cb90c0;}.cls-100{fill:#ee697f;}.cls-101{fill:#e13550;}.cls-102{fill:#cd3255;}.cls-103{fill:#f7bbbf;}.cls-104{fill:#f7ada2;}.cls-105{fill:#cb5fb9;}.cls-106{fill:#2d64dc;}.cls-107{fill:#2a54cc;}.cls-108{fill:#2c39b2;}.cls-109{fill:#3e38ae;}.cls-110{fill:#eb5567;}.cls-111{fill:#cea2c8;}.cls-112{fill:#e09ab1;}.cls-113{fill:#9a9dde;}.cls-114{fill:#aba5df;}.cls-115{fill:#fff;}.cls-116{fill:#f68e4e;}.cls-117{fill:#fa8f0f;}.cls-118{fill:#f99426;}.cls-119{fill:#2f62db;}.cls-120{fill:#1f35b1;}.cls-121{fill:#9142b1;}.cls-122{fill:#bb71c3;}.cls-123{fill:#f99011;}.cls-124{fill:#3a289b;}.cls-125{fill:#894eb5;}.cls-126{fill:#b249b1;}.cls-127{fill:#f49196;}.cls-128{fill:#e1b6cc;}.cls-129{fill:#feb204;}.cls-130{fill:#f57a1b;}.cls-131{fill:#a85cbb;}.cls-132{fill:#9966c1;}.cls-133{fill:#9eaee9;}.cls-134{fill:#f58a70;}.cls-135{fill:#f5895e;}.cls-136{fill:#f38982;}.cls-137{fill:#af8ed2;}.cls-138{fill:#af2e66;}.cls-139{fill:#ba2743;}.cls-140{fill:#8c132f;}.cls-141{fill:#a21f3c;}.cls-142{fill:#2f2da3;}.cls-143{fill:#3434ab;}.cls-144{fill:#c43d89;}.cls-145{fill:#c47ab6;}.cls-146{fill:#bb3a86;}.cls-147{fill:#ba3576;}.cls-148{fill:#bb346e;}.cls-149{fill:#dc3758;}.cls-150{fill:#d13a6f;}.cls-151{fill:#d8375f;}.cls-152{fill:#d53969;}.cls-153{fill:#355fd7;}.cls-154{fill:#4157cf;}.cls-155{fill:#2731aa;}.cls-156{fill:#4d4fc6;}.cls-157{fill:#5948be;}.cls-158{fill:#1a29a2;}.cls-159{fill:#7d3fb0;}.cls-160{fill:#a049b3;}.cls-161{fill:#111786;}.cls-162{fill:#8862c0;}.cls-163{fill:#9558bb;}.cls-164{fill:#683fb4;}.cls-165{fill:#c3315f;}.cls-166{fill:#cc3b78;}.cls-167{fill:#4f69d6;}.cls-168{fill:#6e74d4;}.cls-169{fill:#8576ce;}</style></defs><title>logo-light-mode</title><g id="Layer_2" data-name="Layer 2"><text class="cls-1" transform="translate(35.38 25.57)">Go <tspan class="cls-2" x="21.5" y="0">W</tspan><tspan x="35.5" y="0">ish </tspan><tspan class="cls-3" x="57.36" y="0">studio</tspan></text><path class="cls-4" d="M3.13,9.17A6,6,0,0,1,4,9.09a3.74,3.74,0,0,1,3,1.44,3.57,3.57,0,0,1,.74,1.7.85.85,0,0,0,0,.22c.05.23.12.46.18.69s.18.64.26,1a.34.34,0,0,1,0,.14l-.06,0L8,14a.6.6,0,0,0-.43-.48.62.62,0,0,1-.28-.14,17.06,17.06,0,0,1-1.38-1.17,6.62,6.62,0,0,0-1.35-1.29s0-.08-.08-.11-.24-.19-.36-.29a1.14,1.14,0,0,1-.19-.19,2,2,0,0,0-.57-.59.53.53,0,0,1-.25-.45c.32-.06.65,0,1-.12a2.08,2.08,0,0,0-.43,0Z" transform="translate(-0.12 -0.08)"/><path class="cls-5" d="M13.08,11.16a2.48,2.48,0,0,1,.48-.87,4,4,0,0,0,.54.61,1.23,1.23,0,0,1,.52.81c0,.14.05.29.08.44a1.12,1.12,0,0,0,.12.32c.21.38.44.75.66,1.13a4.92,4.92,0,0,1,.46.84,5.23,5.23,0,0,0,.51.93c.08.14.16.28.23.42l.3.6.39.72.24.49-.27.26s0,.09,0,.13a1.39,1.39,0,0,0-.15.19c-.1.15-.19.3-.28.46,0,0-.09-.06-.08-.08s.06-.14.08-.22,0-.15,0-.17c-.17-.1-.18-.3-.27-.45l-.87-1.43a.88.88,0,0,1-.1-.22A5.08,5.08,0,0,0,15.05,15c-.2-.33-.45-.64-.67-1-.06-.1-.08-.23-.15-.34s-.22-.28-.31-.43a5.13,5.13,0,0,1-.34-.66c-.1-.25,0-.55-.22-.79a.31.31,0,0,1,0-.1.43.43,0,0,0-.16-.35A1,1,0,0,1,13.08,11.16Z" transform="translate(-0.12 -0.08)"/><path class="cls-6" d="M3.13,9.17l.5,0a2.08,2.08,0,0,1,.43,0c-.32.09-.65.06-1,.12s-.2.11-.11.24a3.38,3.38,0,0,0,.54.76.72.72,0,0,1,.14.2A3.87,3.87,0,0,0,4,11.1c.26.33.49.7.74,1s.53.67.79,1,.29.36.43.55a.51.51,0,0,1,.09.16,1.35,1.35,0,0,0,.38.44,1.76,1.76,0,0,1,.27.33,2.51,2.51,0,0,0,.32.41.42.42,0,0,1,.2.32c0,.24.17.35.31.48s.09.12.14.18c-.21-.15-.43-.33-.69-.09l0,0c-.13,0-.23,0-.22-.15,0-.29-.19-.41-.36-.51A1,1,0,0,1,6,14.94l-.18-.24a.3.3,0,0,0-.27-.14.34.34,0,0,1-.28-.14l-.54-.51-.25-.27-.22-.26A2.41,2.41,0,0,1,4,13.14a4.44,4.44,0,0,0-.72-.84c-.13-.25-.26-.5-.4-.75,0-.07-.09-.13-.13-.19s-.24-.31-.35-.47-.24-.39-.38-.57A.49.49,0,0,1,2,9.68l-.09,0A2.64,2.64,0,0,1,3.13,9.17Z" transform="translate(-0.12 -0.08)"/><path class="cls-7" d="M4.7,13.91l.54.51a.34.34,0,0,0,.28.14.3.3,0,0,1,.27.14l.18.24a1,1,0,0,0,.42.34c.17.1.39.22.36.51,0,.13.09.18.22.15l0,0c.26-.24.48-.06.69.09l.24.31c.06.08.14.15.23.1a.49.49,0,0,0,.17-.18A2.53,2.53,0,0,0,8.48,16l.19-.33.06.05c.11.34.22.68.32,1s.24.86.35,1.29a.9.9,0,0,1,0,.16l-.09-.06a1.09,1.09,0,0,0,.11.64c0,.08,0,.13,0,.19s-.16.15-.24.24l-.13-.14a2.91,2.91,0,0,0-.37-.33.67.67,0,0,1-.3-.25,1.07,1.07,0,0,0-.19-.18l-1-.83-.5-.41-.15.32a1.84,1.84,0,0,1-.17-.22,4.16,4.16,0,0,0-.28-.51,11.32,11.32,0,0,1-.81-1c0-.07-.13-.12-.19-.18A.46.46,0,0,1,5,15a.77.77,0,0,0-.21-.84C4.66,14.08,4.69,14,4.7,13.91Z" transform="translate(-0.12 -0.08)"/><path class="cls-8" d="M30.18,9.72l-.1.16a.72.72,0,0,1-.82.3,3.66,3.66,0,0,1-.44-.13.72.72,0,0,1-.49-.93c.23-.81.46-1.63.7-2.45l.18-.61a.83.83,0,0,1,.15,0H31c.12,0,.15.08.15.17l-.69,2.49c-.1.35-.19.7-.28,1.05Z" transform="translate(-0.12 -0.08)"/><path class="cls-9" d="M8.73,15.74l-.06-.05L8.48,16a2.53,2.53,0,0,1-.13.22.49.49,0,0,1-.17.18c-.09,0-.17,0-.23-.1L7.71,16c0-.06-.09-.13-.14-.18s-.3-.24-.31-.48a.42.42,0,0,0-.2-.32,2.51,2.51,0,0,1-.32-.41,1.76,1.76,0,0,0-.27-.33,1.35,1.35,0,0,1-.38-.44A.51.51,0,0,0,6,13.69c-.14-.19-.28-.36-.43-.55s-.53-.66-.79-1-.48-.71-.74-1a3.87,3.87,0,0,1-.38-.61.72.72,0,0,0-.14-.2A3.38,3.38,0,0,1,3,9.53c-.09-.13-.07-.15.11-.24a.53.53,0,0,0,.25.45,2,2,0,0,1,.57.59,1.14,1.14,0,0,0,.19.19c.12.1.25.19.36.29s0,.09.08.11a6.62,6.62,0,0,1,1.35,1.29,17.06,17.06,0,0,0,1.38,1.17.62.62,0,0,0,.28.14A.6.6,0,0,1,8,14l.09.26.06,0a.34.34,0,0,0,0-.14c-.08-.32-.17-.64-.26-1s-.13-.46-.18-.69a.85.85,0,0,1,0-.22h0l.1.33c.16.56.33,1.12.5,1.68s.24.84.37,1.25A2,2,0,0,1,8.73,15.74Z" transform="translate(-0.12 -0.08)"/><path class="cls-10" d="M13.08,11.16a1,1,0,0,0,.11.2.43.43,0,0,1,.16.35.31.31,0,0,0,0,.1c.18.24.12.54.22.79a5.13,5.13,0,0,0,.34.66c.09.15.22.28.31.43s.09.24.15.34c.22.32.47.63.67,1a5.08,5.08,0,0,1,.63,1.08.88.88,0,0,0,.1.22l.87,1.43c.09.15.1.35.27.45,0,0,0,.11,0,.17s-.06.15-.08.22.05.05.08.08l-.16.38-.11.21c-.06-.09-.13-.18-.19-.28l-.11-.21a6.86,6.86,0,0,0-.55-.85c-.32-.45-.6-.93-.9-1.39a5.65,5.65,0,0,1-.34-.51c-.34-.64-.8-1.2-1.2-1.8-.14-.21-.36-.37-.41-.64a.21.21,0,0,0-.11-.12c-.12-.06-.18-.23-.36-.19,0,0,0-.06-.05-.08l-.13-.06Z" transform="translate(-0.12 -0.08)"/><path class="cls-11" d="M23.73,14.13l.27-1,.09.17a.81.81,0,0,0,1.24.31l.13-.09a.41.41,0,0,1,0,.52.65.65,0,0,0,0,.84,1.7,1.7,0,0,1,.26.69,4.36,4.36,0,0,0,.45,1.2c.15.32.34.62.52.94a.53.53,0,0,0,.13.2.49.49,0,0,1,.19.39l-.17.69-.31.87c0-.11,0-.26-.11-.32a3.92,3.92,0,0,1-.45-.62,5.44,5.44,0,0,1-.72-1.37,8.4,8.4,0,0,0-.55-1.27.51.51,0,0,1-.12-.49.38.38,0,0,0-.11-.5c-.21-.2-.39-.43-.59-.65a1,1,0,0,0-.15-.11C23.81,14.37,23.84,14.24,23.73,14.13Z" transform="translate(-0.12 -0.08)"/><path class="cls-12" d="M21.46,34.5a2.49,2.49,0,0,1-.71-.7c.12-.07,0-.14,0-.2s-.17-.28-.23-.43c-.17-.43-.31-.88-.48-1.32s-.5-1.16-.75-1.74c-.09-.2-.17-.41-.25-.61-.15-.41-.31-.82-.46-1.22-.09-.21-.17-.43-.27-.63a4,4,0,0,0-.22-.41c0-.1,0-.19-.07-.28l-.1-.31.16.1a.28.28,0,0,1,.24.18c0,.06.14.15.17.13s.24.07.35.12a1.29,1.29,0,0,0,.08.28c.23.45.46.91.71,1.35s.45.77.67,1.16a1.07,1.07,0,0,1,.09.27c.09.41.17.82.64,1a.65.65,0,0,1,.24.68.64.64,0,0,0,0,.68,3.49,3.49,0,0,0,.15.34.42.42,0,0,1,0,.43,2.56,2.56,0,0,0-.11.24.27.27,0,0,0,.08.29.24.24,0,0,0,.28,0,2,2,0,0,0,.36-.35c.16-.2.29-.42.43-.63h.06l0,.13v.1l-.1.17A5.06,5.06,0,0,1,22,34,1.37,1.37,0,0,1,21.46,34.5Z" transform="translate(-0.12 -0.08)"/><path class="cls-13" d="M15.18,9.19a2.45,2.45,0,0,1,1.26-.07l-.44,0v0l.42.12,0,.26a1.34,1.34,0,0,1,.45.72,1.27,1.27,0,0,0,.12.23,11,11,0,0,1,.56,1,2,2,0,0,0,.27.52,1.78,1.78,0,0,1,.35.65,1.77,1.77,0,0,0,.18.45,13.28,13.28,0,0,1,.88,1.61l.62,1.15a4,4,0,0,1,.55,1.2.81.81,0,0,0-.22,0c-.05,0-.08,0-.12.07h-.11l-.2-.05L19.42,17c.13-.24,0-.42-.09-.58-.29-.54-.6-1.07-.9-1.61-.12-.23-.21-.49-.34-.72-.27-.48-.55-.95-.78-1.46s-.52-1-.8-1.54a2.67,2.67,0,0,0-.61-.84.48.48,0,0,0-.24-.15c-.28,0-.4-.22-.53-.4S15,9.39,15.18,9.19Z" transform="translate(-0.12 -0.08)"/><path class="cls-14" d="M22.33,19c.12-.42.23-.84.35-1.26,0-.14.09-.27.13-.41s.12,0,.11.08a.42.42,0,0,0,.14.36,3.39,3.39,0,0,1,.44.56c.22.39.41.79.62,1.19a14.42,14.42,0,0,1,.72,1.34,8.08,8.08,0,0,0,.8,1.2l.18-.14v.19l-.1.38v.15L25.6,23c-.18.55-.35,1.11-.53,1.66-.05.15-.1.29-.16.44H24.8l.11-.54c.16-.25.14-.55.28-.83a.29.29,0,0,1-.28-.36.69.69,0,0,0,0-.13,1.32,1.32,0,0,0-.21-.45c-.15-.23-.25-.49-.38-.73-.27-.5-.56-1-.83-1.5L23,19.72c-.15-.31-.31-.62-.48-.95l-.11.39Z" transform="translate(-0.12 -0.08)"/><path class="cls-15" d="M23.73,14.13c.11.11.08.24,0,.37a1,1,0,0,1,.15.11c.2.22.38.45.59.65a.38.38,0,0,1,.11.5.51.51,0,0,0,.12.49,8.4,8.4,0,0,1,.55,1.27A5.44,5.44,0,0,0,26,18.89a3.92,3.92,0,0,0,.45.62c.08.06.07.21.11.32l-.09.36c0,.17-.09.33-.13.49l-.1.23v-.26l-.2,0L26,20.33l-.2,0-.09-.17A5.8,5.8,0,0,1,25,19.09q-.2-.39-.42-.78c-.12-.22-.27-.44-.4-.65a2.9,2.9,0,0,0-.19-.29l-.19-.25c-.06-.07-.1-.17-.17-.2a.57.57,0,0,1-.27-.46c0-.15,0-.32-.19-.41.12-.45.24-.9.37-1.35C23.59,14.51,23.66,14.32,23.73,14.13Z" transform="translate(-0.12 -0.08)"/><path class="cls-16" d="M11.2,15.79l.52-1.3s.07.08.06.11a.52.52,0,0,0,.19.64.41.41,0,0,1,0,.09c.33.59.67,1.17,1,1.75s.45.89.67,1.34a4.77,4.77,0,0,1,.22.52s0,.13.08.16a.72.72,0,0,1,.27.35l.61,1.1c.05.1.12.2.16.3a6.37,6.37,0,0,0,.82,1.38.69.69,0,0,1,.05.17l-.09.09c0,.12-.1.24-.15.39a.79.79,0,0,1-.18-.2c-.21-.46-.5-.88-.74-1.32s-.37-.75-.57-1.12c-.1-.19-.22-.37-.33-.57l-.14.15a.23.23,0,0,0-.19-.26l-.14.15c-.06-.1-.14-.19-.2-.3-.18-.31-.35-.63-.53-.95l-.32-.58c-.25-.48-.49-1-.75-1.44-.06-.11-.17-.19-.22-.29A2.2,2.2,0,0,1,11.2,15.79Z" transform="translate(-0.12 -0.08)"/><path class="cls-17" d="M15.88,22.4a.69.69,0,0,0-.05-.17A6.37,6.37,0,0,1,15,20.85c0-.1-.11-.2-.16-.3l-.61-1.1A.72.72,0,0,0,14,19.1c-.05,0-.06-.11-.08-.16a4.77,4.77,0,0,0-.22-.52c-.22-.45-.43-.9-.67-1.34s-.65-1.16-1-1.75a.41.41,0,0,0,0-.09.52.52,0,0,1-.19-.64s0-.07-.06-.11c.17-.39.33-.79.5-1.18,0,.16.12,0,.19.1l1.43,3.51a.3.3,0,0,0,0,.13c.19.48.38,1,.58,1.45.38.91.67,1.85,1.14,2.73a.29.29,0,0,1,0,.1,1.25,1.25,0,0,0,.39.76s0,.1,0,.15l0,.25-.1.14Z" transform="translate(-0.12 -0.08)"/><path class="cls-18" d="M17.33,18s0-.1,0-.13l.27-.26-.24-.49L17,16.39l-.3-.6c-.07-.14-.15-.28-.23-.42a5.23,5.23,0,0,1-.51-.93,4.92,4.92,0,0,0-.46-.84c-.22-.38-.45-.75-.66-1.13a1.12,1.12,0,0,1-.12-.32c0-.15-.06-.3-.08-.44a1.23,1.23,0,0,0-.52-.81,4,4,0,0,1-.54-.61L14,9.82,15,11a.79.79,0,0,1,.14.23,5.71,5.71,0,0,0,.63,1.29c.1.18.2.36.29.54s.16.34.25.5l.55,1A3.49,3.49,0,0,0,17,15a5.28,5.28,0,0,1,.52.93c.2.43.45.84.69,1.28l-.26.21.05.08-.13.09C17.71,17.7,17.46,17.77,17.33,18Z" transform="translate(-0.12 -0.08)"/><path class="cls-19" d="M7.28,34.6a1.17,1.17,0,0,1-.54-.36A3.1,3.1,0,0,1,6,32.93c-.08-.23-.13-.46-.2-.69l.19.31a.21.21,0,0,0,0-.24c0-.11-.09-.22-.12-.33-.1-.37-.19-.75-.3-1.13s-.24-.77-.36-1.16c0-.15-.11-.29-.16-.44L4.92,29c-.15-.48-.31-1-.46-1.45-.07-.26-.13-.53-.19-.8.07,0,0,.18.17.13s.09,0,.1.07c.09.22.25.42.18.69.16,0,.23.15.3.28l.6,1.16.7,1.29a.61.61,0,0,1,0,.61.48.48,0,0,0,.12.59.56.56,0,0,1,.16.21c.06.12.08.27.14.39a.74.74,0,0,1,.07.39.57.57,0,0,0,.11.37s.14,0,.22.06.44,0,.54.31h0l0,.17h.09l0,.13A4.71,4.71,0,0,1,7.28,34.6Z" transform="translate(-0.12 -0.08)"/><path class="cls-20" d="M15.18,9.19c-.16.2-.19.32,0,.52s.25.38.53.4a.48.48,0,0,1,.24.15,2.67,2.67,0,0,1,.61.84c.28.51.56,1,.8,1.54s.51,1,.78,1.46c.13.23.22.49.34.72.3.54.61,1.07.9,1.61.08.16.22.34.09.58l.29.07.2.05h-.48l-.75.05-.22,0,.38-.2a1.86,1.86,0,0,0-.13-.34,10.66,10.66,0,0,1-.61-1.1c-.29-.6-.61-1.18-.93-1.77a9.93,9.93,0,0,1-.49-.91c-.28-.59-.62-1.16-.94-1.74a1.29,1.29,0,0,0-.25-.28c-.25-.22-.52-.43-.75-.67a2.46,2.46,0,0,1-.34-.56s0-.07,0-.1A1.79,1.79,0,0,1,15.18,9.19Z" transform="translate(-0.12 -0.08)"/><path class="cls-21" d="M23.17,16.05c.16.09.17.26.19.41a.57.57,0,0,0,.27.46c.07,0,.11.13.17.2l.19.25a2.9,2.9,0,0,1,.19.29c.13.21.28.43.4.65s.29.52.42.78a5.8,5.8,0,0,0,.67,1.09l.09.17.2,0,.05.27.2,0v.26l-.2.71-.19.51v-.19l-.18.14a8.08,8.08,0,0,1-.8-1.2,14.42,14.42,0,0,0-.72-1.34c-.21-.4-.4-.8-.62-1.19a3.39,3.39,0,0,0-.44-.56.42.42,0,0,1-.14-.36c0-.08,0-.12-.11-.08Z" transform="translate(-0.12 -0.08)"/><path class="cls-22" d="M.23,13.82a3.77,3.77,0,0,1,.27-2.6l.12,0a.54.54,0,0,1,0,.15c-.07.2-.15.39-.21.6a.33.33,0,0,0,.08.38.92.92,0,0,1,.24.34c.21.54.62,1,.85,1.51a5,5,0,0,0,.74,1.07c.07.16.13.31.21.46a7.42,7.42,0,0,1,.44,1.1,4.89,4.89,0,0,0-.05.55c0,.16-.06.24-.22.26L2.08,17c-.25-.27-.44-.61-.81-.76,0,0,0,0-.05-.06L1,16l-.11-.38a.57.57,0,0,0,0-.13c-.12-.35-.26-.7-.35-1.05S.36,13.68.29,13.3c0-.17,0-.34,0-.5a1.77,1.77,0,0,1,0-.23.51.51,0,0,0,0,.27C.2,13.17.22,13.5.23,13.82Z" transform="translate(-0.12 -0.08)"/><path class="cls-23" d="M20,17.14s.07-.07.12-.07a.81.81,0,0,1,.22,0,4,4,0,0,0-.55-1.2l-.62-1.15a13.28,13.28,0,0,0-.88-1.61,1.77,1.77,0,0,1-.18-.45,1.78,1.78,0,0,0-.35-.65,2,2,0,0,1-.27-.52,11,11,0,0,0-.56-1,1.27,1.27,0,0,1-.12-.23,1.34,1.34,0,0,0-.45-.72l0-.26a1.09,1.09,0,0,1,.61.13s.12.09.12.13c0,.24.18.39.25.58a2.63,2.63,0,0,0,.17.42c.21.37.42.72.6,1.1s.54,1,.81,1.51.42.79.63,1.17l.74,1.32a1.09,1.09,0,0,1,.17.32.67.67,0,0,0,.41.47.8.8,0,0,1,.08.16l.25.57c0,.08.07.06.11,0l.42,1-.11.21-.16-.21c.18,0,.08-.14,0-.19a1.65,1.65,0,0,0-.79-.56Z" transform="translate(-0.12 -0.08)"/><path class="cls-24" d="M26.9,29.87c0,.19-.08.39-.13.57L26,32.89a.08.08,0,0,1,0,0,.3.3,0,0,0-.21-.28c-.05,0-.1-.07-.14-.11s-.18-.22-.28-.32a.81.81,0,0,1-.28-.42.8.8,0,0,0-.24-.7.32.32,0,0,1,0-.4.6.6,0,0,0-.05-.63c-.07-.11-.15-.2-.21-.31a2.15,2.15,0,0,1-.1-.27,2.8,2.8,0,0,1,.28.06.49.49,0,0,0,.59-.16.51.51,0,0,1,.5-.22c.24,0,.48,0,.72,0a1.1,1.1,0,0,1,.2.37A1.19,1.19,0,0,0,26.9,29.87Z" transform="translate(-0.12 -0.08)"/><path class="cls-25" d="M14.42,9.49s0,.08,0,.1a2.46,2.46,0,0,0,.34.56c.23.24.5.45.75.67a1.29,1.29,0,0,1,.25.28c.32.58.66,1.15.94,1.74a9.93,9.93,0,0,0,.49.91c.32.59.64,1.17.93,1.77a10.66,10.66,0,0,0,.61,1.1,1.86,1.86,0,0,1,.13.34l-.38.2.22,0-.65.27L18,17.38l.26-.21c-.24-.44-.49-.85-.69-1.28A5.28,5.28,0,0,0,17,15a3.49,3.49,0,0,1-.2-.44l-.55-1c-.09-.16-.16-.33-.25-.5s-.19-.36-.29-.54a5.71,5.71,0,0,1-.63-1.29A.79.79,0,0,0,15,11L14,9.82Z" transform="translate(-0.12 -0.08)"/><path class="cls-26" d="M13.08,29.49l-.55,1.41a3,3,0,0,1-.15.31,1,1,0,0,1,0-.17c0-.12.05-.25.07-.39a.75.75,0,0,0-.47,0,1.86,1.86,0,0,1-.34.06l-.28-.11a1.37,1.37,0,0,1-.37-.15A2.79,2.79,0,0,1,10.5,30a1.22,1.22,0,0,0-.45-.36.3.3,0,0,1-.19-.23l.11-.27v.12l0,0,.31-.65a1.14,1.14,0,0,0,1-.21.47.47,0,0,1,.6,0,1.77,1.77,0,0,1,.34.33.75.75,0,0,0,.71.39.13.13,0,0,1,.06,0Z" transform="translate(-0.12 -0.08)"/><path class="cls-27" d="M27,18.27a.49.49,0,0,0-.19-.39.53.53,0,0,1-.13-.2c-.18-.32-.37-.62-.52-.94a4.36,4.36,0,0,1-.45-1.2,1.7,1.7,0,0,0-.26-.69.65.65,0,0,1,0-.84.41.41,0,0,0,0-.52,3.24,3.24,0,0,0,.35-.94c0-.07.05-.13.07-.2a1.46,1.46,0,0,1,.65,1l-.09.36-.33,1.14a.61.61,0,0,0,.44.79.65.65,0,0,0,.61-.2,1.38,1.38,0,0,1,.44.81l-.22.85c-.06.21-.13.41-.19.61s-.05.24-.08.36Z" transform="translate(-0.12 -0.08)"/><path class="cls-28" d="M13.84,16.92l-1.43-3.51c-.07-.09-.2.06-.19-.1l.06-.21.13.06s0,.08.05.08c.18,0,.24.13.36.19a.21.21,0,0,1,.11.12c.05.27.27.43.41.64.4.6.86,1.16,1.2,1.8a5.65,5.65,0,0,0,.34.51c.3.46.58.94.9,1.39a6.86,6.86,0,0,1,.55.85l.11.21c.06.1.13.19.19.28s0,.32-.24.44c.14-.35-.11-.49-.28-.64a5.2,5.2,0,0,1-.8-.89c-.16-.23-.15-.24-.42-.17l0-.06c-.12-.22-.25-.43-.54-.46,0,0-.08,0-.11-.07Z" transform="translate(-0.12 -0.08)"/><path class="cls-29" d="M.88,15.63,1,16c.09.3.17.61.27.92l.48,1.52.36,1.17c0,.13.09.26.13.4s.11.33.16.5a.65.65,0,0,0,0,.13.37.37,0,0,0,.07-.19c0-.2.07-.23.26-.16a1.62,1.62,0,0,1,.18.1,1.18,1.18,0,0,0,.19.11l.5.17.48.86a2.38,2.38,0,0,1,0,.26c0,.18,0,.37.07.55s.07.36.09.54a.32.32,0,0,1-.25.38c-.22.07-.22.08-.19.32,0,0,0,.05,0,.12l-.5-.38.1.25-.26-.26L3,23c-.14-.43-.29-.86-.42-1.29-.26-.82-.51-1.65-.76-2.47-.08-.28-.15-.56-.22-.84a.35.35,0,0,0-.1-.34,1.15,1.15,0,0,1-.17-.57.3.3,0,0,0-.1-.29L1,16.62a.33.33,0,0,0-.1-.34s0,0,0,0a.4.4,0,0,0-.11-.34l0-.16v-.18Z" transform="translate(-0.12 -0.08)"/><path class="cls-30" d="M2.28,15.25a5,5,0,0,1-.74-1.07c-.23-.53-.64-1-.85-1.51a.92.92,0,0,0-.24-.34A.33.33,0,0,1,.37,12c.06-.21.14-.4.21-.6a.54.54,0,0,0,0-.15l-.12,0A2.3,2.3,0,0,1,1,10.46a.37.37,0,0,1,0,.14c0,.07,0,.15,0,.21a2.07,2.07,0,0,0,.27.45,2.29,2.29,0,0,1,.47.85,1.73,1.73,0,0,0,.44.72,1.52,1.52,0,0,1,.2.33c0,.43,0,.85,0,1.28C2.37,14.71,2.32,15,2.28,15.25Z" transform="translate(-0.12 -0.08)"/><path class="cls-31" d="M11.2,15.79a2.2,2.2,0,0,0,.13.36c.05.1.16.18.22.29.26.48.5,1,.75,1.44l.32.58c.18.32.35.64.53.95.06.11.14.2.2.3a2.31,2.31,0,0,1-.1.28c-.11.25-.22.5-.32.75a.52.52,0,0,1-.34-.29c-.15-.25-.3-.51-.43-.77-.4-.75-.79-1.51-1.18-2.27l-.05-.06a.26.26,0,0,1,0-.38s0-.11,0-.19l-.13.08Z" transform="translate(-0.12 -0.08)"/><path class="cls-32" d="M9.71,19.17c.11,0,.12-.07.15-.14.14-.35.29-.69.43-1,.12.05.1.15.11.25a.51.51,0,0,0,.06.25,8.29,8.29,0,0,1,.68,1.24c.19.4.42.79.64,1.17a1.23,1.23,0,0,0,.37.45.94.94,0,0,1,.34.5l-.32.75L12,22.56a1.71,1.71,0,0,1-.47-.23,1.69,1.69,0,0,1-.36-.55c-.24-.6-.63-1.11-.91-1.68a7.82,7.82,0,0,0-.45-.72.71.71,0,0,1-.1-.14Z" transform="translate(-0.12 -0.08)"/><path class="cls-33" d="M20.93,16.44a.67.67,0,0,1-.41-.47,1.09,1.09,0,0,0-.17-.32l-.74-1.32c-.21-.38-.42-.78-.63-1.17s-.56-1-.81-1.51-.39-.73-.6-1.1a2.63,2.63,0,0,1-.17-.42c-.07-.19-.25-.34-.25-.58,0,0-.07-.11-.12-.13a1.09,1.09,0,0,0-.61-.13L16,9.17v0l.44,0a2,2,0,0,1,.94.28h-.16a4.4,4.4,0,0,0,.39.26A3.23,3.23,0,0,1,18.71,11c.12.27.22.54.34.81.25.62.51,1.24.76,1.85s.42,1,.62,1.48S20.77,16,20.93,16.44Z" transform="translate(-0.12 -0.08)"/><path class="cls-34" d="M12.49,21.86a.94.94,0,0,0-.34-.5,1.23,1.23,0,0,1-.37-.45c-.22-.38-.45-.77-.64-1.17a8.29,8.29,0,0,0-.68-1.24.51.51,0,0,1-.06-.25c0-.1,0-.2-.11-.25l.47-1.14.13-.08c0,.08,0,.15,0,.19a.26.26,0,0,0,0,.38l.05.06c.39.76.78,1.52,1.18,2.27.13.26.28.52.43.77a.52.52,0,0,0,.34.29l-.22.69Z" transform="translate(-0.12 -0.08)"/><path class="cls-35" d="M2.39,13.16a1.52,1.52,0,0,0-.2-.33,1.73,1.73,0,0,1-.44-.72,2.29,2.29,0,0,0-.47-.85A2.07,2.07,0,0,1,1,10.81c0-.06,0-.14,0-.21a.37.37,0,0,0,0-.14,2.94,2.94,0,0,1,.92-.8l.09,0a.49.49,0,0,0,.06.64c.14.18.25.38.38.57s.23.31.35.47.09.12.13.19c.14.25.27.5.4.75a3.58,3.58,0,0,1-.11.35.76.76,0,0,1-.11.26.47.47,0,0,0-.1.3.65.65,0,0,1,0,.2.45.45,0,0,0,0,.34,1.05,1.05,0,0,1-.5-.56Z" transform="translate(-0.12 -0.08)"/><path class="cls-36" d="M30.18,9.72c.13.09.27.16.39.25a4.94,4.94,0,0,1,.84,1l-.1.44c-.07.22-.14.45-.22.67a.7.7,0,0,0,.07.63c-.15.51-.29,1-.45,1.53a1.14,1.14,0,0,0,0,.55c-.12,0-.24.12-.35,0l-.08-.29,0-.08v-.35l.27-1c0-.14.09-.28.13-.43a.55.55,0,0,0-.41-.79,6.18,6.18,0,0,0-.62-.12c.19-.68.39-1.36.58-2Z" transform="translate(-0.12 -0.08)"/><path class="cls-37" d="M25.38,10c.16-.57.32-1.14.47-1.71,0-.15.09-.31.14-.46a.73.73,0,1,1,1.4.42c-.05.23-.12.45-.18.67s0,.18-.05.26c-.09.26-.17.51-.26.76a2.44,2.44,0,0,1-.26.06Z" transform="translate(-0.12 -0.08)"/><path class="cls-38" d="M9.71,19.17l0,.07,0,.26-.15.25c-.08.16-.15.33-.23.5l0-.15c-.25.25-.28.25-.54,0l-.49-.37a1.67,1.67,0,0,1-.57-.61A.2.2,0,0,0,7.58,19a2.76,2.76,0,0,1-.75-.51c-.06,0-.09-.14-.14-.21s0-.28.17-.34a.14.14,0,0,0,0-.27.62.62,0,0,1-.31-.31l.15-.32.5.41,1,.83a1.07,1.07,0,0,1,.19.18.67.67,0,0,0,.3.25,2.91,2.91,0,0,1,.37.33l.13.14c.08-.09.16-.16.24-.24s.05-.11,0-.19a1.09,1.09,0,0,1-.11-.64l.09.06a.06.06,0,0,1,0,0,.44.44,0,0,0,.11.39Z" transform="translate(-0.12 -0.08)"/><path class="cls-39" d="M15.56,23.43l-.31.72-.12.29c0-.08-.07-.17-.11-.26s0-.15-.1-.17c-.21-.1-.43-.18-.65-.27a3.81,3.81,0,0,0-.2-.68c-.22-.44-.48-.87-.73-1.3-.08-.13-.17-.25-.1-.42s0-.11-.1-.12l.43-1.08h.09a16,16,0,0,0,.85,1.71c.28.56.59,1.1.89,1.66l.13-.19Z" transform="translate(-0.12 -0.08)"/><path class="cls-40" d="M27.61,27.62l-.17.53a.93.93,0,0,0-.2.08.35.35,0,0,1-.47,0c-.15-.11-.28-.25-.42-.37s-.15-.17-.3-.16v.14l-.14-.22c-.08-.13-.13-.3-.24-.38a2,2,0,0,1-.55-.67l-.19.12,0-.3v-.06H25c.12,0,.13-.06.16-.15a1.2,1.2,0,0,1,.08-.27c.08-.18.1-.18.28-.11a.29.29,0,0,0,.15,0,.59.59,0,0,1,.45.09.5.5,0,0,0,.19.1c.22,0,.28.2.33.37s0,.14.05.21a.46.46,0,0,0,.46.38,2.21,2.21,0,0,1,0,.25A.43.43,0,0,0,27.61,27.62Z" transform="translate(-0.12 -0.08)"/><path class="cls-41" d="M30.23,14.07v.35s-.09,0-.09,0S30,14.81,30,15l-.09,0c-.39,0-.78,0-1.17,0a.28.28,0,0,0-.29.17c0-.13.05-.26.07-.4a.25.25,0,0,0,0-.17c-.14-.31-.3-.61-.45-.91a.24.24,0,0,0-.24-.14l0-.26.11-.11A1.62,1.62,0,0,0,28,13c.08-.26.15-.53.22-.79L28.3,12a1.28,1.28,0,0,0,1,.05l-.21.86a5.6,5.6,0,0,0-.33,1.12,1.88,1.88,0,0,0,.29.06q.49,0,1,0A1,1,0,0,0,30.23,14.07Z" transform="translate(-0.12 -0.08)"/><path class="cls-42" d="M14.48,26.06,14,27.29l-.09.22a.88.88,0,0,1-.05-.15c-.05-.22-.12-.29-.34-.28a.48.48,0,0,0-.26.09,1.6,1.6,0,0,1-1.19.34.57.57,0,0,0-.13,0l-.5,0c.06-.06.16-.11.19-.18a1.69,1.69,0,0,1,.55-.77c.16-.12.28-.29.44-.41a.3.3,0,0,0,.16-.31l.6-.08.75-.13.23.24Z" transform="translate(-0.12 -0.08)"/><path class="cls-43" d="M25.07,31.8a.81.81,0,0,0,.28.42c.1.1.18.22.28.32s.09.1.14.11a.3.3,0,0,1,.21.28,2.79,2.79,0,0,1-.47,1,1.67,1.67,0,0,1-.6.55l-.1,0c-.24,0-.34,0-.44-.19a1.89,1.89,0,0,1-.27-1,.77.77,0,0,1,.2-.48,2.39,2.39,0,0,0,.22-.23Z" transform="translate(-0.12 -0.08)"/><path class="cls-44" d="M21.68,18.42l.11-.21.38,1,.06.09.09-.16V19l.11.14.11-.39c.17.33.33.64.48.95l.44.88c.27.5.56,1,.83,1.5.13.24.23.5.38.73a1.32,1.32,0,0,1,.21.45.69.69,0,0,1,0,.13.29.29,0,0,0,.28.36c-.14.28-.12.58-.28.83h0s0-.06,0-.07a.72.72,0,0,1-.25-.56.87.87,0,0,0-.11-.38c-.2-.35-.42-.68-.6-1s-.38-.77-.57-1.15L23,20.67l-.62-1.14c0-.05-.08-.11-.13-.11s-.15-.09-.18-.19-.14-.32-.21-.48l-.09-.15Z" transform="translate(-0.12 -0.08)"/><path class="cls-45" d="M24.1,33.26a1.89,1.89,0,0,0,.27,1c.1.2.2.23.44.19l.1,0a2.26,2.26,0,0,1-1.07.45l.12-.12h-.64c-.08,0-.16,0-.2-.09l-.3-.7s0-.1-.05-.12-.08-.24-.06-.37.09-.16,0-.25l-.16.11-.09-.08.1-.17.21,0a.76.76,0,0,0,.06-.16c.06-.27.11-.32.38-.34a.6.6,0,0,0,.63.42.27.27,0,0,1,.18.08A.56.56,0,0,1,24.1,33.26Z" transform="translate(-0.12 -0.08)"/><path class="cls-46" d="M11.62,33.09a3,3,0,0,1-1,1.34,2,2,0,0,1-1,.45c-.14,0-.27.06-.41.09S9,34.8,9.05,34.6a1.06,1.06,0,0,1,.09-.36,9,9,0,0,1,.6-.82,1.84,1.84,0,0,1,.34-.27c.25,0,.51-.07.75.09a.2.2,0,0,0,.15,0,.24.24,0,0,1,.34.12Z" transform="translate(-0.12 -0.08)"/><path class="cls-47" d="M29.59,21.11l-.3.93c0,.12-.06.24-.09.36l-.1-.17c-.06-.16-.18-.24-.32-.17a.53.53,0,0,1-.41,0l-.5-.14-.27-.86.15-.18.38-.52.77.22.54.15a.54.54,0,0,1,0-.08.82.82,0,0,1,.05-.14.24.24,0,0,1,0,.28A.21.21,0,0,0,29.59,21.11Z" transform="translate(-0.12 -0.08)"/><path class="cls-48" d="M28.67,24.07c-.06.23-.11.46-.18.69s-.13.4-.2.6h-.11c0-.16.08-.31.11-.46s-.06-.21-.18-.18a6.06,6.06,0,0,1-.73.09,2,2,0,0,1-.8-.38l.75-1.23a4,4,0,0,0,1.07.26c.27.05.31.11.26.38C28.65,23.92,28.58,24,28.67,24.07Z" transform="translate(-0.12 -0.08)"/><path class="cls-49" d="M29.59,21.11a.21.21,0,0,1,0-.32.24.24,0,0,0,0-.28.82.82,0,0,0-.05.14.54.54,0,0,0,0,.08l-.54-.15-.77-.22L28,20c.09-.17.19-.35.27-.53s.14-.36.21-.54l.43-.1a1.15,1.15,0,0,0,.22.22c.34.26.7.5.73,1l0,0Z" transform="translate(-0.12 -0.08)"/><path class="cls-50" d="M27.38,24.82a6.06,6.06,0,0,0,.73-.09c.12,0,.2,0,.18.18s-.07.3-.11.46h.11c-.08.28-.17.56-.25.84s-.22.82-.34,1.23c0,.06-.06.12-.09.19a.43.43,0,0,1-.39-.4,2.21,2.21,0,0,0,0-.25.42.42,0,0,0-.14-.75c-.18-.08-.21-.14-.15-.33A2.7,2.7,0,0,1,27.38,24.82Z" transform="translate(-0.12 -0.08)"/><path class="cls-51" d="M9.05,34.6c-.06.2.13.25.22.37a4,4,0,0,1-1.42-.1,1.31,1.31,0,0,1-.57-.27,4.71,4.71,0,0,0,.51-1l0-.13.31-.66,0,.19c.18.11.22-.08.36-.13s.09.1.1.16c.08.31.14.62.22.92S9,34.38,9.05,34.6Z" transform="translate(-0.12 -0.08)"/><path class="cls-52" d="M28.67,24.07c-.09-.07,0-.15,0-.22.05-.27,0-.33-.26-.38a4,4,0,0,1-1.07-.26l-.11-.49a2.83,2.83,0,0,0,.25-.24c.14-.18.26-.37.4-.56l.5.14a.53.53,0,0,0,.41,0c.14-.07.26,0,.32.17l.1.17C29,23,28.85,23.51,28.67,24.07Z" transform="translate(-0.12 -0.08)"/><path class="cls-53" d="M11.42,27.56l.5,0a.57.57,0,0,1,.13,0,1.6,1.6,0,0,0,1.19-.34.48.48,0,0,1,.26-.09c.22,0,.29.06.34.28a.88.88,0,0,0,.05.15l-.54,1.34-.18,0a.42.42,0,0,1-.07-.13.45.45,0,0,0-.29-.35l-.09-.06a1.64,1.64,0,0,0-1.06-.42,1.08,1.08,0,0,1-.89-.26Z" transform="translate(-0.12 -0.08)"/><path class="cls-54" d="M11.63,30.73a1.86,1.86,0,0,0,.34-.06.75.75,0,0,1,.47,0c0,.14-.06.27-.07.39a1,1,0,0,0,0,.17c-.12.31-.25.61-.37.92L11.89,32l-.92.22-.41.11a1.15,1.15,0,0,1-.32-.54,1.34,1.34,0,0,1,.45-.4,1.05,1.05,0,0,0,.3-.22A1.65,1.65,0,0,1,11.63,30.73Z" transform="translate(-0.12 -0.08)"/><path class="cls-55" d="M25.38,10h1.26a2.44,2.44,0,0,0,.26-.06l-.11.49a4.48,4.48,0,0,0-.16.52.93.93,0,0,1-.56.67H26a.74.74,0,0,1-.81-1C25.25,10.41,25.31,10.2,25.38,10Z" transform="translate(-0.12 -0.08)"/><path class="cls-56" d="M30.24,14.5l.08.29c.11.1.23,0,.35,0a.7.7,0,0,0,.74.37c0,.09,0,.15-.05.21l-.54,1.77a.61.61,0,0,1-.05.12l-.12.08.06-.49c-.24-.13-.44-.25-.65-.34a.3.3,0,0,1-.21-.33c.08-.31.17-.62.25-.93S30.19,14.74,30.24,14.5Z" transform="translate(-0.12 -0.08)"/><path class="cls-57" d="M14.48,26.06l-.14-.14-.23-.24-.43-1.4c.09-.07.2-.14.29-.22l.3-.32c.22.09.44.17.65.27.05,0,.07.11.1.17s.07.18.11.26-.1.34-.17.5C14.81,25.31,14.64,25.68,14.48,26.06Z" transform="translate(-0.12 -0.08)"/><path class="cls-58" d="M10.77,27.67a1.08,1.08,0,0,0,.89.26,1.64,1.64,0,0,1,1.06.42l.09.06a.45.45,0,0,1,.29.35.42.42,0,0,0,.07.13l.18,0-.27.64L13,29.14a.13.13,0,0,0-.06,0,.75.75,0,0,1-.71-.39,1.77,1.77,0,0,0-.34-.33.47.47,0,0,0-.6,0,1.14,1.14,0,0,1-1,.21l-.31.65,0,0v-.12A.88.88,0,0,1,10,29l.43-1.2.16-.27,0,.31Z" transform="translate(-0.12 -0.08)"/><path class="cls-59" d="M26.07,11.61a.93.93,0,0,0,.56-.67,4.48,4.48,0,0,1,.16-.52s0,.06,0,.07a1.79,1.79,0,0,1,.37.64c0,.06.13.1.2.15a2.27,2.27,0,0,1-.06.25l-.15.61-.06.06a.61.61,0,0,0-.35.43c-.08.25-.16.5-.23.75a1.46,1.46,0,0,0-.65-1Z" transform="translate(-0.12 -0.08)"/><path class="cls-60" d="M31.15,6.18c0-.09,0-.17-.15-.17H29.36a.83.83,0,0,0-.15,0l.27-.91a1.54,1.54,0,0,1,.31-.05h1.57a.89.89,0,0,1,0,.28C31.32,5.65,31.23,5.92,31.15,6.18Z" transform="translate(-0.12 -0.08)"/><path class="cls-16" d="M15.56,23.43l0-.1-.13.19c-.3-.56-.61-1.1-.89-1.66a16,16,0,0,1-.85-1.71h-.09l.11-.32.14-.15c.11.2.23.38.33.57.2.37.37.76.57,1.12s.53.86.74,1.32a.79.79,0,0,0,.18.2c0-.15.1-.27.15-.39l.09-.09v.23Z" transform="translate(-0.12 -0.08)"/><path class="cls-61" d="M29.05,12.94l.21-.86.34-.32a6.18,6.18,0,0,1,.62.12.55.55,0,0,1,.41.79c0,.15-.09.29-.13.43H29.3C29.18,13.11,29.06,13.11,29.05,12.94Z" transform="translate(-0.12 -0.08)"/><path class="cls-62" d="M29.85,16.16a.3.3,0,0,0,.21.33c.21.09.41.21.65.34l-.06.49.12-.08-.36,1.2c-.07.24-.16.49-.23.74l-.12.08c.06-.26.11-.49.17-.71a.47.47,0,0,0-.35-.62c-.18,0-.37-.08-.46-.27Z" transform="translate(-0.12 -0.08)"/><path class="cls-63" d="M28.73,5c-.05.18-.08.36-.14.54a.72.72,0,0,1-.87.44l-.15,0a.73.73,0,0,1-.51-1.06.31.31,0,0,1,.12,0h1.34A.2.2,0,0,1,28.73,5Z" transform="translate(-0.12 -0.08)"/><path class="cls-64" d="M27.83,2.14c.05-.21.1-.43.17-.64A.72.72,0,0,1,28.89,1a1,1,0,0,1,.58.31.72.72,0,0,1,.06.82L28,2.1A.56.56,0,0,0,27.83,2.14Z" transform="translate(-0.12 -0.08)"/><path class="cls-65" d="M27.38,11.28c-.07,0-.17-.09-.2-.15a1.79,1.79,0,0,0-.37-.64s0-.05,0-.07l.11-.49c.09-.25.17-.5.26-.76a3.3,3.3,0,0,1,.95-.08l-.31,1.18a1.68,1.68,0,0,0-.37,1Z" transform="translate(-0.12 -0.08)"/><path class="cls-66" d="M31.9,6.12c.12-.46.24-.91.38-1.36a.52.52,0,0,1,.59-.35A.53.53,0,0,1,33.3,5a1,1,0,0,1,0,.24L33,6.13A.14.14,0,0,0,32.82,6c-.24,0-.48,0-.72,0A.42.42,0,0,0,31.9,6.12Z" transform="translate(-0.12 -0.08)"/><path class="cls-67" d="M27.83,2.14a.56.56,0,0,1,.12,0l1.58,0-.32,1.13,0-.21H27.67a.31.31,0,0,0-.12,0Z" transform="translate(-0.12 -0.08)"/><path class="cls-68" d="M10.56,32.29l.41-.11.92-.22.12.17-.39,1-.3.26a.24.24,0,0,0-.34-.12.2.2,0,0,1-.15,0c-.24-.16-.5-.06-.75-.09A3.45,3.45,0,0,1,10.56,32.29Z" transform="translate(-0.12 -0.08)"/><path class="cls-69" d="M29.42,17.66c.09.19.28.23.46.27a.47.47,0,0,1,.35.62c-.06.22-.11.45-.17.71l.12-.08-.27.86,0,0c0-.49-.39-.73-.73-1a1.15,1.15,0,0,1-.22-.22.81.81,0,0,0,.26-.42C29.27,18.15,29.35,17.91,29.42,17.66Z" transform="translate(-0.12 -0.08)"/><path class="cls-70" d="M31.9,6.12a.42.42,0,0,1,.2-.1c.24,0,.48,0,.72,0a.14.14,0,0,1,.16.12c-.1.36-.19.72-.31,1.08a.5.5,0,0,1-.64.32.52.52,0,0,1-.37-.64C31.73,6.63,31.82,6.37,31.9,6.12Z" transform="translate(-0.12 -0.08)"/><path class="cls-71" d="M27.55,3.11a.31.31,0,0,1,.12,0h1.51l0,.21L29,4A1.29,1.29,0,0,0,28.75,4a7.72,7.72,0,0,1-1.44-.06Z" transform="translate(-0.12 -0.08)"/><path class="cls-72" d="M22.44,33.31l.09.08.16-.11c.11.09,0,.17,0,.25s-.09.26.06.37,0,.08.05.12l.3.7c0,.09.12.09.2.09H24l-.12.12h0l-.33.06a3,3,0,0,1-2.05-.48A1.37,1.37,0,0,0,22,34,5.06,5.06,0,0,0,22.44,33.31Z" transform="translate(-0.12 -0.08)"/><path class="cls-73" d="M3,23l.22.33c.09.34.18.69.28,1s.17.42.25.63a1.23,1.23,0,0,0,0,.19c.09.29.18.59.28.88a2.32,2.32,0,0,0,.24.7c.06.27.12.54.19.8.15.49.31,1,.46,1.45l.09.25c0,.15.11.29.16.44.12.39.25.77.36,1.16s.2.76.3,1.13c0,.11.08.22.12.33a.21.21,0,0,1,0,.24l-.19-.31L3.8,25.77,3,23.2A1.55,1.55,0,0,1,3,23Z" transform="translate(-0.12 -0.08)"/><path class="cls-74" d="M31.63,1.44c.09-.33.16-.67.28-1a.56.56,0,0,1,.72-.34A.57.57,0,0,1,33,.78c0,.23-.14.44-.2.66Z" transform="translate(-0.12 -0.08)"/><path class="cls-75" d="M27.31,3.91A7.72,7.72,0,0,0,28.75,4,1.29,1.29,0,0,1,29,4c-.08.26-.15.53-.22.8a.61.61,0,0,1-.05.12.2.2,0,0,0-.21-.17H27.18a.31.31,0,0,0-.12,0Z" transform="translate(-0.12 -0.08)"/><path class="cls-76" d="M31.16,12.69a.7.7,0,0,1-.07-.63c.08-.22.15-.45.22-.67,0,.13.06.16.18.16l.84,0c-.08.3-.15.6-.24.89a.53.53,0,0,1-.8.29Z" transform="translate(-0.12 -0.08)"/><path class="cls-77" d="M26,27.83v-.14c.15,0,.22.08.3.16s.27.26.42.37a.35.35,0,0,0,.47,0,.93.93,0,0,1,.2-.08l-.38,1.28a3.89,3.89,0,0,1-.16.44,1.19,1.19,0,0,1-.18-.33,1.1,1.1,0,0,0-.2-.37l-.19-.55C26.23,28.36,26.13,28.09,26,27.83Z" transform="translate(-0.12 -0.08)"/><path class="cls-78" d="M32.54,2.36c-.07.25-.12.5-.2.74a.57.57,0,0,1-.73.36.58.58,0,0,1-.38-.7l.13-.4a.8.8,0,0,1,.26,0Z" transform="translate(-0.12 -0.08)"/><path class="cls-79" d="M20.93,16.44c-.16-.42-.33-.84-.5-1.26s-.41-1-.62-1.48-.51-1.23-.76-1.85c-.12-.27-.22-.54-.34-.81a3.23,3.23,0,0,0-1.1-1.38,4.4,4.4,0,0,1-.39-.26h.16a2.49,2.49,0,0,1,1.16,1,7.2,7.2,0,0,1,.53,1.08c.76,1.82,1.5,3.65,2.25,5.48,0,.06,0,.12.05.18s-.08.07-.11,0L21,16.6A.8.8,0,0,0,20.93,16.44Z" transform="translate(-0.12 -0.08)"/><path class="cls-80" d="M32.33,11.6l-.84,0c-.12,0-.19,0-.18-.16l.1-.44.16-.48c0,.09.08.11.16.11h.42l.45.05Z" transform="translate(-0.12 -0.08)"/><path class="cls-81" d="M18.09,27.24a4,4,0,0,1,.22.41c.1.2.18.42.27.63.15.4.31.81.46,1.22.08.2.16.41.25.61.25.58.51,1.16.75,1.74s.31.89.48,1.32c.06.15.16.29.23.43s.12.13,0,.2a1.79,1.79,0,0,1-.4-.71c-.52-1.25-1-2.51-1.53-3.77l-.76-1.86a2.29,2.29,0,0,1-.09-.28Z" transform="translate(-0.12 -0.08)"/><path class="cls-82" d="M32.54,2.36l-.92,0a.8.8,0,0,0-.26,0l.27-.92h1.18Z" transform="translate(-0.12 -0.08)"/><path class="cls-83" d="M27.43,11.22a1.68,1.68,0,0,1,.37-1c.1,0,.19-.06.29-.07a.52.52,0,0,1,.54.62,2.64,2.64,0,0,1-.12.4A2.19,2.19,0,0,1,27.43,11.22Z" transform="translate(-0.12 -0.08)"/><path class="cls-84" d="M27.43,11.22a2.19,2.19,0,0,0,1.08,0L28.3,12l-.06.16-1.07,0,.15-.61a2.27,2.27,0,0,0,.06-.25Z" transform="translate(-0.12 -0.08)"/><path class="cls-85" d="M31.36,5.1H29.79a1.54,1.54,0,0,0-.31.05.76.76,0,0,1,.42-.66,1.3,1.3,0,0,1,1.38.39A.72.72,0,0,1,31.36,5.1Z" transform="translate(-0.12 -0.08)"/><path class="cls-86" d="M18.09,27.24,18,27.18l-.57-1.35-1.26-3.11s0-.1-.05-.15v-.33h0l.11-.15a2.23,2.23,0,0,0,.06.54c.1.3.27.57.36.88,0,.11.11.22.16.33s.06.09.06.14a1.26,1.26,0,0,0,.28.62c.06.12.2.2.13.38s0,.22.2.22a.34.34,0,0,0,0,.34c.09.17.12.38.21.56s.08.41.25.55L18,27C18.05,27.05,18.06,27.14,18.09,27.24Z" transform="translate(-0.12 -0.08)"/><path class="cls-87" d="M32.6,10.63l-.45-.05h-.42c-.08,0-.15,0-.16-.11s.06-.26.1-.39a.53.53,0,1,1,1,.43A.56.56,0,0,0,32.6,10.63Z" transform="translate(-0.12 -0.08)"/><path class="cls-88" d="M.88,15.63l-.09-.07v.18a11.68,11.68,0,0,1-.55-1.92c0-.32,0-.65,0-1a.51.51,0,0,1,0-.27,1.77,1.77,0,0,0,0,.23c0,.16,0,.33,0,.5.07.38.13.77.23,1.15s.23.7.35,1.05A.57.57,0,0,1,.88,15.63Z" transform="translate(-0.12 -0.08)"/><path class="cls-89" d="M16.09,22.24v.33l-.1-.08,0-.25Z" transform="translate(-0.12 -0.08)"/><path class="cls-7" d="M9.55,18.64a.44.44,0,0,1-.11-.39Z" transform="translate(-0.12 -0.08)"/><path class="cls-88" d="M.94,16.28a.33.33,0,0,1,.1.34Z" transform="translate(-0.12 -0.08)"/><path class="cls-88" d="M.82,15.9a.4.4,0,0,1,.11.34Z" transform="translate(-0.12 -0.08)"/><path class="cls-4" d="M7.82,12.57l-.1-.33Z" transform="translate(-0.12 -0.08)"/><path class="cls-88" d="M1.48,18.05a.35.35,0,0,1,.1.34Z" transform="translate(-0.12 -0.08)"/><path class="cls-45" d="M23.51,35l.33-.06Z" transform="translate(-0.12 -0.08)"/><path class="cls-88" d="M1.21,17.19a.3.3,0,0,1,.1.29Z" transform="translate(-0.12 -0.08)"/><path class="cls-23" d="M22.32,19.1l-.09.16-.06-.09Z" transform="translate(-0.12 -0.08)"/><path class="cls-90" d="M18,17.46l.65-.27.75-.05.45.08,0,.24c-.11,0-.22,0-.32,0l-.33.05-.38.11-.28.1s0,0-.06,0a2.46,2.46,0,0,0-1.43,1.36l-.16.27-.17.26h-.05c0-.06-.05-.13,0-.16s.08-.31.09-.46l.16-.38c.09-.16.18-.31.28-.46a1.39,1.39,0,0,1,.15-.19c.13-.22.38-.29.57-.44Z" transform="translate(-0.12 -0.08)"/><path class="cls-91" d="M2.93,13.75a.45.45,0,0,1,0-.34.65.65,0,0,0,0-.2.47.47,0,0,1,.1-.3.76.76,0,0,0,.11-.26,3.58,3.58,0,0,0,.11-.35,4.44,4.44,0,0,1,.72.84,2.41,2.41,0,0,0,.21.24l.22.26.25.27c0,.09,0,.17,0,.24A.77.77,0,0,1,5,15a.46.46,0,0,0,.12.48,1,1,0,0,0-.24,0c-.08,0-.19.06-.22.13a.7.7,0,0,0-.1.55c0,.08,0,.18,0,.28a2.42,2.42,0,0,1-.38-.58,3.59,3.59,0,0,0-.5-.85A5.31,5.31,0,0,1,2.93,13.75Z" transform="translate(-0.12 -0.08)"/><path class="cls-92" d="M4.49,16.44c0-.1.06-.2,0-.28a.7.7,0,0,1,.1-.55c0-.07.14-.11.22-.13a1,1,0,0,1,.24,0c.06.06.15.11.19.18a11.32,11.32,0,0,0,.81,1,4.16,4.16,0,0,1,.28.51,1.84,1.84,0,0,0,.17.22.62.62,0,0,0,.31.31.14.14,0,0,1,0,.27c-.2.06-.17.2-.17.34-.28.07-.38-.19-.56-.3a.5.5,0,0,0-.32.59,1.37,1.37,0,0,1,0,.19l-.22-.05a3,3,0,0,1-.63-1s0-.08,0-.11A1.62,1.62,0,0,0,4.65,17Z" transform="translate(-0.12 -0.08)"/><path class="cls-93" d="M16.74,19c0,.15,0,.32-.09.46s0,.1,0,.16h.05l.17-.26-.24.92c-.05.17-.09.35-.14.53l-.43,1.4H16s0-.12,0-.15a1.25,1.25,0,0,1-.39-.76.29.29,0,0,0,0-.1c-.47-.88-.76-1.82-1.14-2.73-.2-.48-.39-1-.58-1.45a.3.3,0,0,1,0-.13l.36.46s.07.07.11.07c.29,0,.42.24.54.46l0,.06c.27-.07.26-.06.42.17a5.2,5.2,0,0,0,.8.89c.17.15.42.29.28.64.23-.12.18-.31.24-.44Z" transform="translate(-0.12 -0.08)"/><path class="cls-94" d="M26.31,20.68c0-.16.09-.32.13-.49l.09-.36c.1-.29.2-.58.31-.87,0,0,.09,0,.09,0s.18.26.13.43v.05c-.11.35-.21.7-.32,1,0,.13-.07.27-.11.41h-.05c0-.14,0-.27-.17-.31Z" transform="translate(-0.12 -0.08)"/><path class="cls-95" d="M27.06,19.39c.05-.17-.1-.29-.13-.43s-.06,0-.09,0c.05-.23.11-.46.17-.69l.1-.17c.09-.09.19-.16.31-.06-.05.23-.09.46-.15.68S27.13,19.17,27.06,19.39Z" transform="translate(-0.12 -0.08)"/><path class="cls-96" d="M22.55,33l0-.13h-.06c-.14.21-.27.43-.43.63a2,2,0,0,1-.36.35.24.24,0,0,1-.28,0,.27.27,0,0,1-.08-.29,2.56,2.56,0,0,1,.11-.24.42.42,0,0,0,0-.43,3.49,3.49,0,0,1-.15-.34.64.64,0,0,1,0-.68.65.65,0,0,0-.24-.68c-.47-.19-.55-.6-.64-1A1.07,1.07,0,0,0,20.3,30c-.22-.39-.46-.77-.67-1.16s-.48-.9-.71-1.35a1.29,1.29,0,0,1-.08-.28c0-.11-.09-.21-.12-.32a.72.72,0,0,1,0-.29,1.42,1.42,0,0,1,.61-1s0-.05,0-.08.17.08.21.15a7.31,7.31,0,0,1,.43.65c.25.45.49.9.73,1.36l.44.82c.07.12.14.23.2.35l.51.91.27.43.36.5c.08.12.21.24.22.37s.18.49.09.75l0,0,.1-.08a1.6,1.6,0,0,1,0,.23l-.24.84Z" transform="translate(-0.12 -0.08)"/><path class="cls-97" d="M17.92,26.65c-.17-.14-.17-.37-.25-.55s-.12-.39-.21-.56a.34.34,0,0,1,0-.34c-.16,0-.24-.13-.2-.22s-.07-.26-.13-.38.09-.09.1-.14a3.09,3.09,0,0,0,0-.53,1.05,1.05,0,0,1,.05-.68.44.44,0,0,0,0-.36,5.34,5.34,0,0,1-.44-1.62l0-.1c.13.38.25.78.4,1.16a1.62,1.62,0,0,0,.28.45,2.89,2.89,0,0,1,.55.92,1.47,1.47,0,0,1,.17.8.58.58,0,0,1-.1.12.49.49,0,0,0-.22.48,4.06,4.06,0,0,0,.09.7,6.49,6.49,0,0,1,.05.88.13.13,0,0,1,0,.07Z" transform="translate(-0.12 -0.08)"/><path class="cls-98" d="M18.08,26.75a.13.13,0,0,0,0-.07,6.49,6.49,0,0,0-.05-.88,4.06,4.06,0,0,1-.09-.7.49.49,0,0,1,.22-.48.58.58,0,0,0,.1-.12,3.23,3.23,0,0,1,.41.22c.17.13.34.28.5.42l.11.32s0,.07,0,.08a1.42,1.42,0,0,0-.61,1,.72.72,0,0,0,0,.29c0,.11.08.21.12.32-.11-.05-.18-.19-.35-.12s-.15-.07-.17-.13A.28.28,0,0,0,18.08,26.75Z" transform="translate(-0.12 -0.08)"/><path class="cls-99" d="M22.55,33l.1-.27a4.12,4.12,0,0,0,.28-.31A.32.32,0,0,0,23,32.3a1.58,1.58,0,0,0,.15-.48c0-.34,0-.69,0-1l.25-.54a.93.93,0,0,1,0,.29.45.45,0,0,0,0,.45c.22-.07.28,0,.28.18a.92.92,0,0,1-.08.27,1.34,1.34,0,0,0-.07.27,1.06,1.06,0,0,1-.11.49c-.08.13-.15.28-.22.42-.27,0-.32.07-.38.34a.76.76,0,0,1-.06.16l-.21,0Z" transform="translate(-0.12 -0.08)"/><path class="cls-100" d="M19.21,17.51l.33-.05c.1,0,.21,0,.32,0l0-.24-.45-.08H20l.75.32c0,.11,0,.17-.15.15l-.28,0Z" transform="translate(-0.12 -0.08)"/><path class="cls-101" d="M21.68,18.42l.08.18.09.15c-.17.05-.2.11-.14.25s.14.35.23.52.14.24.21.36l.3.56c.08.14.13.29.22.43a3.36,3.36,0,0,1,.53,1c0,.05.05.09.07.14.38.73.74,1.46,1.12,2.19.11.2.23.41.52.39h0l-.11.54a.53.53,0,0,0-.36-.19v.25s-.07,0-.08-.07l-.49-.95c0-.1-.09-.19-.14-.29l-1.18-2.15-.66-1.16a4.35,4.35,0,0,1-.54-1.13A1,1,0,0,0,21,18.8a.63.63,0,0,1-.14-.86L21,18,21,17.83l.53.38Z" transform="translate(-0.12 -0.08)"/><path class="cls-102" d="M24.43,25.2V25a.53.53,0,0,1,.36.19h.11l-.06.37c-.11.33-.21.65-.31,1-.18.55-.36,1.11-.53,1.67l-.13.14c0-.25.1-.48-.05-.68v-.1L24,26.7a2.62,2.62,0,0,0,.21-.91.81.81,0,0,0,.1-.18C24.36,25.47,24.39,25.33,24.43,25.2Z" transform="translate(-0.12 -0.08)"/><path class="cls-103" d="M24.85,25.51l.06-.37c.06-.15.11-.29.16-.44.18-.55.35-1.11.53-1.66a.45.45,0,0,0,.11-.38v-.15l.16-.06-.06.38h.05L26,22.5H26v.32a.62.62,0,0,0-.11.17c-.11.41-.21.82-.32,1.23l-.11.37h0c-.05.17-.11.34-.16.5l-.27.74C25,25.73,25,25.55,24.85,25.51Z" transform="translate(-0.12 -0.08)"/><path class="cls-104" d="M26,22.67v-.16H26l-.12.34h-.05l.06-.38-.16.06.1-.38.19-.51.2-.71.1-.23.1-.09c.16,0,.17.17.17.31s-.14.56-.23.84S26.14,22.36,26,22.67Z" transform="translate(-0.12 -0.08)"/><path class="cls-104" d="M25.71,22.66a.45.45,0,0,1-.11.38Z" transform="translate(-0.12 -0.08)"/><path class="cls-105" d="M13.68,19.82l-.11.32-.43,1.08-.11.21c-.11-.14-.15-.14-.32,0l.22-.69c.1-.25.21-.5.32-.75a2.31,2.31,0,0,0,.1-.28l.14-.15A.23.23,0,0,1,13.68,19.82Z" transform="translate(-0.12 -0.08)"/><path class="cls-106" d="M4.27,26.75a2.32,2.32,0,0,1-.24-.7c-.1-.29-.19-.59-.28-.88a1.23,1.23,0,0,1,0-.19l.11-.09c.16.12.08.24,0,.39.2-.05.26,0,.26.19a.24.24,0,0,0,.07.13A1,1,0,0,1,4.5,26c.15.32.29.65.46,1s.44.75.67,1.13a2,2,0,0,1,.1.21c.12.24.22.49.35.73s.33.59.48.89a2.09,2.09,0,0,1,.13.35c0,.15.07.29.11.44a1.46,1.46,0,0,1,0,.2.87.87,0,0,0,.55.83c.11.05.18.22.23.34s-.06.15-.1.23,0,.12-.1.21a2.33,2.33,0,0,1,.28.26.82.82,0,0,1,.11.23l-.06.27h0C7.61,33,7.38,33,7.17,33S7,33,7,32.93a.57.57,0,0,1-.11-.37.74.74,0,0,0-.07-.39c-.06-.12-.08-.27-.14-.39a.56.56,0,0,0-.16-.21A.48.48,0,0,1,6.35,31a.61.61,0,0,0,0-.61l-.7-1.29L5,27.92c-.07-.13-.14-.25-.3-.28.07-.27-.09-.47-.18-.69,0,0-.07-.08-.1-.07S4.34,26.78,4.27,26.75Z" transform="translate(-0.12 -0.08)"/><path class="cls-107" d="M7.76,33.31,7.82,33,8,32.61l.51-1.18s0-.06,0-.08,0-.27.06-.4l.25-.14,0,.29L8.44,32c-.1.28-.2.56-.31.84l-.31.66H7.73Z" transform="translate(-0.12 -0.08)"/><path class="cls-108" d="M4.11,21.54l-.48-.86c0-.11,0-.23-.07-.34s-.13-.25-.19-.38a2.71,2.71,0,0,1-.24-.78,3.11,3.11,0,0,0-.29-.94,1.7,1.7,0,0,1-.18-.62c.16,0,.22-.1.22-.26a4.89,4.89,0,0,1,.05-.55l.43.43s0,.07,0,.11c.2.41.41.81.58,1.23a2.93,2.93,0,0,0,.39.69l.09.16c.17.31.35.62.53.93a.72.72,0,0,1,0,.21.58.58,0,0,0,0,.48.62.62,0,0,1,0,.44A2,2,0,0,0,5,22l-.69-.51Z" transform="translate(-0.12 -0.08)"/><path class="cls-109" d="M3.36,17.24l-.43-.43a7.42,7.42,0,0,0-.44-1.1c-.08-.15-.14-.3-.21-.46s.09-.54.11-.81c0-.43,0-.85,0-1.28l0,0a1.05,1.05,0,0,0,.5.56A5.31,5.31,0,0,0,3.61,15a3.59,3.59,0,0,1,.5.85,2.42,2.42,0,0,0,.38.58l.16.53a.28.28,0,0,1-.36.15.38.38,0,0,0-.2,0A.37.37,0,0,1,3.74,17c-.13-.08-.26,0-.27.16a1.31,1.31,0,0,0,0,.15Z" transform="translate(-0.12 -0.08)"/><path class="cls-88" d="M2.66,17.62a1.7,1.7,0,0,0,.18.62,3.11,3.11,0,0,1,.29.94,2.71,2.71,0,0,0,.24.78c.06.13.14.25.19.38s0,.23.07.34l-.5-.17a1.18,1.18,0,0,1-.19-.11,1.62,1.62,0,0,0-.18-.1c-.19-.07-.24,0-.26.16a.37.37,0,0,1-.07.19.65.65,0,0,1,0-.13c-.05-.17-.11-.34-.16-.5s-.09-.27-.13-.4l-.36-1.17-.48-1.52c-.1-.31-.18-.62-.27-.92l.23.17s0,.05.05.06c.37.15.56.49.81.76Z" transform="translate(-0.12 -0.08)"/><path class="cls-110" d="M21.52,18.21,21,17.83l-.65-.26.28,0c.12,0,.16,0,.15-.15a1.65,1.65,0,0,1,.79.56C21.6,18.07,21.7,18.18,21.52,18.21Z" transform="translate(-0.12 -0.08)"/><path class="cls-111" d="M23.19,32.61c.07-.14.14-.29.22-.42a1.06,1.06,0,0,0,.11-.49,1.34,1.34,0,0,1,.07-.27.92.92,0,0,0,.08-.27c0-.21-.06-.25-.28-.18a.45.45,0,0,1,0-.45.93.93,0,0,0,0-.29l.21-.65,0,.34.22.07.21-.56.08.09.17-.19.18.15a2.15,2.15,0,0,0,.1.27c.06.11.14.2.21.31a.6.6,0,0,1,.05.63.32.32,0,0,0,0,.4.8.8,0,0,1,.24.7l-.55.75a2.39,2.39,0,0,1-.22.23.77.77,0,0,0-.2.48.56.56,0,0,0-.1-.15.27.27,0,0,0-.18-.08A.6.6,0,0,1,23.19,32.61Z" transform="translate(-0.12 -0.08)"/><path class="cls-112" d="M24.43,29.49l-.18-.15-.17.19L24,29.44a1,1,0,0,0,0-.1l.81-2.73c0-.08.08-.16.11-.23l0,.3.19-.12a2,2,0,0,0,.55.67c.11.08.16.25.24.38l.14.22c.09.26.19.53.29.79l.19.55c-.24,0-.48,0-.72,0a.51.51,0,0,0-.5.22.49.49,0,0,1-.59.16A2.8,2.8,0,0,0,24.43,29.49Z" transform="translate(-0.12 -0.08)"/><path class="cls-113" d="M11.63,30.73a1.65,1.65,0,0,0-.64.4,1.05,1.05,0,0,1-.3.22,1.34,1.34,0,0,0-.45.4,1.18,1.18,0,0,0-.33.12c-.33.25-.76.18-1.14.42A3.22,3.22,0,0,1,9,31.43c.14-.37.29-.74.44-1.1,0,0,0-.09,0-.14l.37-.8a.3.3,0,0,0,.19.23,1.22,1.22,0,0,1,.45.36,2.79,2.79,0,0,0,.48.49,1.37,1.37,0,0,0,.37.15Z" transform="translate(-0.12 -0.08)"/><path class="cls-114" d="M9.86,29.39l-.37.8s-.07-.05-.07-.08,0-.16,0-.24.12-.07.12-.11a3.1,3.1,0,0,0,0-.43l.2-.59.6-1.45.08,0,0,.52L10,29a.88.88,0,0,0,0,.15Z" transform="translate(-0.12 -0.08)"/><path class="cls-115" d="M26.53,13.38c.07-.25.15-.5.23-.75a.61.61,0,0,1,.35-.43c0,.15-.07.3-.11.46a.5.5,0,0,0,.22.59.57.57,0,0,0,.59,0l0,.26-.39,1.31-.22.63a.65.65,0,0,1-.61.2.61.61,0,0,1-.44-.79l.33-1.14Z" transform="translate(-0.12 -0.08)"/><path class="cls-116" d="M27.06,19.39c.07-.22.15-.45.21-.67s.1-.45.15-.68c-.12-.1-.22,0-.31.06,0-.12,0-.24.08-.36s.13-.4.19-.61l.18-.32.25.32a1.08,1.08,0,0,1,0,.19l-.21.74a.65.65,0,0,0,.31.68,6.48,6.48,0,0,0,.63.17c-.07.18-.13.37-.21.54s-.18.36-.27.53a.93.93,0,0,1-.58-.23.3.3,0,0,0-.38-.1v-.26Z" transform="translate(-0.12 -0.08)"/><path class="cls-117" d="M27.16,15.47l.22-.63.39-1.31a.24.24,0,0,1,.24.14c.15.3.31.6.45.91a.25.25,0,0,1,0,.17c0,.14,0,.27-.07.4l0,0c-.05,0-.1,0-.14,0-.24.07-.32.28-.39.49s-.15.41-.22.62A1.38,1.38,0,0,0,27.16,15.47Z" transform="translate(-0.12 -0.08)"/><path class="cls-118" d="M27.6,16.28c.07-.21.14-.42.22-.62s.15-.42.39-.49c0,0,.09,0,.14,0l-.06.44c0,.11-.09.22-.13.34-.12.38-.23.77-.35,1.15l-.25-.32-.18.32Z" transform="translate(-0.12 -0.08)"/><path class="cls-119" d="M8,32.61,7.82,33a.82.82,0,0,0-.11-.23,2.33,2.33,0,0,0-.28-.26c.05-.09.07-.15.1-.21s.12-.17.1-.23-.12-.29-.23-.34a.87.87,0,0,1-.55-.83,1.46,1.46,0,0,0,0-.2c0-.15-.07-.29-.11-.44A2.09,2.09,0,0,0,6.56,30c-.15-.3-.33-.59-.48-.89s-.23-.49-.35-.73a2,2,0,0,0-.1-.21C5.4,27.74,5.17,27.37,5,27s-.31-.64-.46-1a1,1,0,0,0-.32-.43.24.24,0,0,1-.07-.13c0-.16-.06-.24-.26-.19.07-.15.15-.27,0-.39L3.73,25c-.08-.21-.18-.42-.25-.63s-.19-.69-.28-1l.26.26L3.9,24l.54,1.15c.08.17.15.35.24.51s.2.31.28.48.25.55.39.82.35.58.52.87a3.36,3.36,0,0,1,.2.43c.15.34.43.62.55,1s.2.42.28.63a2.36,2.36,0,0,1,.11.44,1.17,1.17,0,0,0,.06.2c.1.24.22.47.31.71a.42.42,0,0,0,.21.26.45.45,0,0,1,.28.37c0,.19.11.38,0,.58C7.88,32.47,8,32.55,8,32.61Z" transform="translate(-0.12 -0.08)"/><path class="cls-120" d="M3.9,24l-.44-.43-.1-.25.5.38c0-.07,0-.1,0-.12,0-.24,0-.25.19-.32a.32.32,0,0,0,.25-.38c0-.18-.07-.36-.09-.54s0-.37-.07-.55a2.38,2.38,0,0,0,0-.26l.17-.08L5,22a9.81,9.81,0,0,0,.7,1.37,1.3,1.3,0,0,1,.11.35c-.25,0-.47,0-.58.29a.27.27,0,0,1-.07.08.83.83,0,0,1-.75,0l-.47-.24L4,24Z" transform="translate(-0.12 -0.08)"/><path class="cls-121" d="M9.7,19.5a2,2,0,0,1,0-.26.71.71,0,0,0,.1.14,7.82,7.82,0,0,1,.45.72c.28.57.67,1.08.91,1.68a1.69,1.69,0,0,0,.36.55,1.71,1.71,0,0,0,.47.23l.14.05-.1.27-.33.81,0-.19-.21.2a2.4,2.4,0,0,1-.38-.49c-.17-.38-.3-.77-.45-1.16s-.35-1-.53-1.48L10,20c0-.14-.11-.15-.22-.09C9.85,19.77,9.74,19.64,9.7,19.5Z" transform="translate(-0.12 -0.08)"/><path class="cls-122" d="M11.74,23.69l.33-.81.1-.27.32-.75.22-.43c.17-.14.21-.14.32,0l-.15.41c-.08.2-.15.41-.23.61l-.27.64c-.08.2-.17.4-.26.6,0,0,0-.11-.07,0a.66.66,0,0,1-.4.25Z" transform="translate(-0.12 -0.08)"/><path class="cls-115" d="M27.81,17.13c.12-.38.23-.77.35-1.15,0-.12.09-.23.13-.34a.57.57,0,0,0,.48.47l.28.08a.51.51,0,0,0,.67-.36c.09-.27.16-.56.23-.84s.11-.36.18-.53.06,0,.09,0l0,.08c0,.24-.09.49-.14.73s-.17.62-.25.93l-.43,1.5c-.07.25-.15.49-.22.73a.81.81,0,0,1-.26.42l-.43.1a6.48,6.48,0,0,1-.63-.17.65.65,0,0,1-.31-.68l.21-.74A1.08,1.08,0,0,0,27.81,17.13Z" transform="translate(-0.12 -0.08)"/><path class="cls-123" d="M29.05,12.94c0,.17.13.17.25.17h1.2l-.27,1a1,1,0,0,1-.23,0q-.49,0-1,0a1.88,1.88,0,0,1-.29-.06A5.6,5.6,0,0,1,29.05,12.94Z" transform="translate(-0.12 -0.08)"/><path class="cls-124" d="M5.83,18.8a1.37,1.37,0,0,0,0-.19A.5.5,0,0,1,6.13,18c.18.11.28.37.56.3,0,.07.08.17.14.21a2.76,2.76,0,0,0,.75.51.2.2,0,0,1,.11.11,1.67,1.67,0,0,0,.57.61l.49.37c.26.22.29.22.54,0l0,.15c-.09.25-.18.5-.28.75l-.15.31-.42,1,0-.15-.2.25c0-.13,0-.26-.11-.32a.67.67,0,0,1-.31-.31,2.08,2.08,0,0,0-.25-.38A3.85,3.85,0,0,1,7,20.5a4.88,4.88,0,0,0-.6-1A8,8,0,0,1,5.83,18.8Z" transform="translate(-0.12 -0.08)"/><path class="cls-125" d="M9,21l.28-.75c.08-.17.15-.34.23-.5l.15-.25c0,.14.15.27.05.43a3.88,3.88,0,0,1-.43,1.13C9.24,20.86,9.23,20.86,9,21Z" transform="translate(-0.12 -0.08)"/><path class="cls-126" d="M12.65,22.45c.08-.2.15-.41.23-.61l.15-.41.11-.21c.08,0,.13.06.1.12s0,.29.1.42c.25.43.51.86.73,1.3a3.81,3.81,0,0,1,.2.68l-.3.32c-.09.08-.2.15-.29.22l-.43-.16c-.06-.27-.11-.54-.17-.8s-.06-.45-.29-.57c0,0-.06-.1-.08-.16Z" transform="translate(-0.12 -0.08)"/><path class="cls-127" d="M25.07,25.84l.27-.74c.05-.16.11-.33.16-.5a.13.13,0,0,0,.07,0c.25-.06.53,0,.77-.18a.9.9,0,0,1,.24,0,2,2,0,0,0,.8.38,2.7,2.7,0,0,0-.5,1.07c-.06.19,0,.25.15.33a.42.42,0,0,1,.14.75.46.46,0,0,1-.46-.38c0-.07,0-.14-.05-.21s-.11-.33-.33-.37a.5.5,0,0,1-.19-.1.59.59,0,0,0-.45-.09.29.29,0,0,1-.15,0c-.18-.07-.2-.07-.28.11a1.2,1.2,0,0,0-.08.27c0,.09,0,.18-.16.15l.05-.32Z" transform="translate(-0.12 -0.08)"/><path class="cls-128" d="M25.07,25.84V26l-.11.32v.06c0,.07-.08.15-.11.23L24,29.34a1,1,0,0,1,0,.1l-.21.56-.22-.07,0-.34a.94.94,0,0,1,0-.16l.24-.9h0l.12-.38c.17-.56.35-1.12.53-1.67.1-.32.2-.64.31-1C25,25.55,25,25.73,25.07,25.84Z" transform="translate(-0.12 -0.08)"/><path class="cls-112" d="M25,26.32l.11-.32-.05.32Z" transform="translate(-0.12 -0.08)"/><path class="cls-129" d="M30,15c-.07.28-.14.57-.23.84a.51.51,0,0,1-.67.36l-.28-.08a.57.57,0,0,1-.48-.47l.06-.44,0,0a.28.28,0,0,1,.29-.17c.39,0,.78,0,1.17,0Z" transform="translate(-0.12 -0.08)"/><path class="cls-130" d="M27.22,13.25a.5.5,0,0,1-.22-.59c0-.16.07-.31.11-.46l.06-.06,1.07,0c-.07.26-.14.53-.22.79a1.62,1.62,0,0,1-.1.18l-.29-.05C27.48,13.11,27.31,13.06,27.22,13.25Z" transform="translate(-0.12 -0.08)"/><path class="cls-117" d="M27.22,13.25c.09-.19.26-.14.41-.14l.29.05-.11.11A.57.57,0,0,1,27.22,13.25Z" transform="translate(-0.12 -0.08)"/><path class="cls-131" d="M13.25,24.12l.43.16.43,1.4-.75.13-.6.08c0-.16-.15-.23-.27-.32a.44.44,0,0,0,0-.15c0-.31,0-.61.06-.92.18,0,.29-.13.41-.22Z" transform="translate(-0.12 -0.08)"/><path class="cls-132" d="M12.49,25.57c.12.09.25.16.27.32a.3.3,0,0,1-.16.31c-.16.12-.28.29-.44.41a1.69,1.69,0,0,0-.55.77c0,.07-.13.12-.19.18l-.65.11-.21.14,0-.31.38-.91,0,.13c.16-.29.23-.68.67-.52C11.94,25.94,12.13,25.65,12.49,25.57Z" transform="translate(-0.12 -0.08)"/><path class="cls-23" d="M24.91,24.6c-.29,0-.41-.19-.52-.39-.38-.73-.74-1.46-1.12-2.19,0-.05-.05-.09-.07-.14a3.36,3.36,0,0,0-.53-1c-.09-.14-.14-.29-.22-.43l-.3-.56c-.07-.12-.15-.24-.21-.36s-.15-.34-.23-.52,0-.2.14-.25c.07.16.15.32.21.48s.06.18.18.19.1.06.13.11L23,20.67l.36.74c.19.38.37.77.57,1.15s.4.68.6,1a.87.87,0,0,1,.11.38.72.72,0,0,0,.25.56S24.9,24.58,24.91,24.6Z" transform="translate(-0.12 -0.08)"/><path class="cls-133" d="M9.43,29.87c0,.08,0,.16,0,.24s0,.06.07.08,0,.1,0,.14c-.15.36-.3.73-.44,1.1a3.22,3.22,0,0,0-.27.86c.38-.24.81-.17,1.14-.42a1.18,1.18,0,0,1,.33-.12,1.15,1.15,0,0,0,.32.54,3.45,3.45,0,0,0-.48.86,1.84,1.84,0,0,0-.34.27,9,9,0,0,0-.6.82,1.06,1.06,0,0,0-.09.36c-.07-.22-.15-.43-.21-.65s-.14-.61-.22-.92c0-.06-.07-.11-.1-.16s-.18.24-.36.13l0-.19c.11-.28.21-.56.31-.84l.34-.87s.05-.05.06-.08c.13-.35.25-.7.38-1h0a.39.39,0,0,1,.08-.1Z" transform="translate(-0.12 -0.08)"/><path class="cls-134" d="M26,22.67c.1-.31.22-.61.31-.93s.15-.56.23-.84h.05c0,.11-.12.23,0,.36l0-.06c.1-.22.1-.21.32-.13a.39.39,0,0,0,.15,0l.45,0,.27.86c-.14.19-.26.38-.4.56a2.83,2.83,0,0,1-.25.24.92.92,0,0,1-.7-.15c-.05-.05-.14-.05-.22-.07l-.21.46h0v-.28Z" transform="translate(-0.12 -0.08)"/><path class="cls-135" d="M27.6,21.06l-.45,0a.39.39,0,0,1-.15,0c-.22-.08-.22-.09-.32.13l0,.06c-.13-.13,0-.25,0-.36s.07-.28.11-.41c.11-.35.21-.7.32-1v.21a.3.3,0,0,1,.38.1A.93.93,0,0,0,28,20l.1.38-.38.52Z" transform="translate(-0.12 -0.08)"/><path class="cls-136" d="M26,22.83V23h0l.21-.46c.08,0,.17,0,.22.07a.92.92,0,0,0,.7.15l.11.49-.75,1.23a.9.9,0,0,0-.24,0c-.24.17-.52.12-.77.18a.13.13,0,0,1-.07,0h0l.11-.37c.11-.41.21-.82.32-1.23A.62.62,0,0,1,26,22.83Z" transform="translate(-0.12 -0.08)"/><path class="cls-137" d="M11,26.59l-.38.91-.16.27,0-.52-.08,0v-.11c.19-.43.37-.86.55-1.3l.42-1.12a1.08,1.08,0,0,0,.11-.18c.08-.22.15-.45.23-.67a.66.66,0,0,0,.4-.25c.06-.08.06,0,.07,0l-.17.53,0,.06c-.27.68-.54,1.36-.8,2l-.11.27Z" transform="translate(-0.12 -0.08)"/><path class="cls-89" d="M16.85,21.27a5.34,5.34,0,0,0,.44,1.62.44.44,0,0,1,0,.36,1.05,1.05,0,0,0-.05.68,3.09,3.09,0,0,1,0,.53c0,.05-.07.1-.1.14a1.26,1.26,0,0,1-.28-.62c0-.05,0-.09-.06-.14s-.12-.22-.16-.33c-.09-.31-.26-.58-.36-.88a2.23,2.23,0,0,1-.06-.54l-.11.15c.14-.47.29-.93.43-1.4.11,0,.15-.06.17-.15a.24.24,0,0,1,.27-.17c0,.11-.06.22-.08.33S16.76,21.12,16.85,21.27Z" transform="translate(-0.12 -0.08)"/><path class="cls-138" d="M17,20.52a.24.24,0,0,0-.27.17c0,.09-.06.15-.17.15.05-.18.09-.36.14-.53l.24-.92.16-.27,0,.09.19-.2.1-.07c.22-.13.36-.39.65-.41l-.17.19.17.4s0,.06-.05.07A3.73,3.73,0,0,0,17,20.3.83.83,0,0,0,17,20.52Z" transform="translate(-0.12 -0.08)"/><path class="cls-139" d="M20.34,17.57l.65.26L21,18l-.22,0L20,18c-.13-.11-.24,0-.35.06a.54.54,0,0,1-.23.15c-.34.07-.69.12-1,.17l.25-.15v-.17l1-.26c0-.16.11-.17.24-.21-.24,0-.48-.08-.71,0h-.27l.38-.11Z" transform="translate(-0.12 -0.08)"/><path class="cls-140" d="M18.89,17.63h.21a.24.24,0,0,1-.06.08c-.34.17-.68.33-1,.52a1.74,1.74,0,0,0-.75.79l-.19.2,0-.09a2.46,2.46,0,0,1,1.43-1.36s0,0,.06,0Z" transform="translate(-0.12 -0.08)"/><path class="cls-141" d="M18.89,17.63l-.34.09.28-.1Z" transform="translate(-0.12 -0.08)"/><path class="cls-142" d="M5.83,18.8a8,8,0,0,0,.53.73,4.88,4.88,0,0,1,.6,1,3.85,3.85,0,0,0,.62.89,2.08,2.08,0,0,1,.25.38.67.67,0,0,0,.31.31c.15.06.14.19.11.32L8,22.89a.47.47,0,0,0-.17,0l-.58.36c-.08.06-.15.15-.27.13a.23.23,0,0,0,0-.25c0-.08-.07-.17-.12-.24a3.45,3.45,0,0,0-.62-1,.49.49,0,0,1-.11-.18,4.08,4.08,0,0,0-.67-1.16,2.07,2.07,0,0,1,0-.5c.08-.21.21-.4.12-.64,0,0,0-.07,0-.1s0-.2,0-.29a2.54,2.54,0,0,0,0-.29Z" transform="translate(-0.12 -0.08)"/><path class="cls-143" d="M5.61,18.75a2.54,2.54,0,0,1,0,.29c0,.09,0,.19,0,.29s0,.07,0,.1c.09.24,0,.43-.12.64a2.07,2.07,0,0,0,0,.5L5,20.36c-.18-.31-.36-.62-.53-.93l-.09-.16A2.93,2.93,0,0,1,4,18.58c-.17-.42-.38-.82-.58-1.23,0,0,0-.07,0-.11l.14.09a1.31,1.31,0,0,1,0-.15c0-.16.14-.24.27-.16a.37.37,0,0,0,.35.07.38.38,0,0,1,.2,0A.28.28,0,0,0,4.65,17a1.62,1.62,0,0,1,.32.69s0,.08,0,.11A3,3,0,0,0,5.61,18.75Z" transform="translate(-0.12 -0.08)"/><path class="cls-144" d="M19.32,25.46l-.11-.32a3.43,3.43,0,0,1,.08-.71,1.66,1.66,0,0,0,0-.63,1.51,1.51,0,0,0-.18-.64s.07-.19.06-.28-.14-.21-.12-.27a1.18,1.18,0,0,0,0-.53l.19.25a5.93,5.93,0,0,1,.48.64c.15.23.27.48.4.72.37.66.74,1.32,1.1,2,.23.42.45.85.67,1.27a.43.43,0,0,0,0,.07c.2.34.41.67.6,1s.27.52.42.78a2.55,2.55,0,0,1,.34.68,2.91,2.91,0,0,1,0,.31c-.06.31-.11.62-.17.93,0,.07,0,.16.11.11l-.22.86-.1.08,0,0c.09-.26-.05-.5-.09-.75s-.14-.25-.22-.37l-.36-.5-.27-.43-.51-.91c-.06-.12-.13-.23-.2-.35l-.44-.82c-.24-.46-.48-.91-.73-1.36a7.31,7.31,0,0,0-.43-.65C19.49,25.54,19.39,25.51,19.32,25.46Z" transform="translate(-0.12 -0.08)"/><path class="cls-145" d="M22.92,31.7l.22-.86v-.06c0,.35,0,.7,0,1a1.58,1.58,0,0,1-.15.48.32.32,0,0,1-.09.16,4.12,4.12,0,0,1-.28.31l.24-.84A1.6,1.6,0,0,0,22.92,31.7Z" transform="translate(-0.12 -0.08)"/><path class="cls-146" d="M19,22.08a1.18,1.18,0,0,1,0,.53c0,.06.11.17.12.27s-.1.24-.06.28a1.51,1.51,0,0,1,.18.64,1.66,1.66,0,0,1,0,.63,3.43,3.43,0,0,0-.08.71c-.16-.14-.33-.29-.5-.42a3.23,3.23,0,0,0-.41-.22,1.47,1.47,0,0,0-.17-.8,2.89,2.89,0,0,0-.55-.92,1.62,1.62,0,0,1-.28-.45c-.15-.38-.27-.78-.4-1.16a2.77,2.77,0,0,1,.2-.34c.12-.15.28-.27.39-.43a.58.58,0,0,1,.52-.26h.23l.53.67a.65.65,0,0,1,.16.59,1.05,1.05,0,0,0,0,.47C19,21.94,19,22,19,22.08Z" transform="translate(-0.12 -0.08)"/><path class="cls-147" d="M18.24,20.14H18a.58.58,0,0,0-.52.26c-.11.16-.27.28-.39.43a2.77,2.77,0,0,0-.2.34l0,.1c-.09-.15,0-.28,0-.42s.05-.22.08-.33A.83.83,0,0,1,17,20.3,3.73,3.73,0,0,1,18,19.19s0,0,.05-.07l.43-.1-.05.16c-.06.07-.11.16-.18.23a.3.3,0,0,0,0,.38A1.39,1.39,0,0,1,18.24,20.14Z" transform="translate(-0.12 -0.08)"/><path class="cls-148" d="M23.15,30.78v.06c-.12.05-.12,0-.11-.11.06-.31.11-.62.17-.93a2.91,2.91,0,0,0,0-.31l.33-1.12c.05-.18.1-.35.16-.52l.1-.24c.15.2.07.43.05.68l.13-.14-.12.38-.05-.09h0v.16l.1-.07-.24.9a.94.94,0,0,0,0,.16l-.21.65Z" transform="translate(-0.12 -0.08)"/><path class="cls-149" d="M20,18l.86,0a.63.63,0,0,0,.14.86,1,1,0,0,1,.38.65,4.35,4.35,0,0,0,.54,1.13l.66,1.16,1.18,2.15c.05.1.1.19.14.29l.49.95s0,0,.08.07-.07.27-.12.41a.81.81,0,0,1-.1.18.81.81,0,0,1-.28-.38c-.16-.36-.32-.72-.5-1.07s-.43-.69-.62-1.05a5.76,5.76,0,0,1-.52-1,.56.56,0,0,0-.09-.17,5.73,5.73,0,0,1-.56-1,2.35,2.35,0,0,0-.31-.56,4,4,0,0,0-.5-.59.93.93,0,0,1-.28-.37,2,2,0,0,0-.56-.83.17.17,0,0,1,0-.24.23.23,0,0,0,0-.33.67.67,0,0,1-.06-.17Z" transform="translate(-0.12 -0.08)"/><path class="cls-150" d="M23.83,27.61l-.1.24c-.06.17-.11.34-.16.52a.71.71,0,0,0,0-.26c-.15-.3-.32-.58-.48-.87L22.36,26c0-.08-.08-.16-.13-.24-.18-.3-.38-.58-.53-.89a12.62,12.62,0,0,0-.89-1.76,2.93,2.93,0,0,0-.73-.91.88.88,0,0,1-.34-.7,1.59,1.59,0,0,0-.41-1,1.11,1.11,0,0,1-.36-.61,2.92,2.92,0,0,0-.19-.49.34.34,0,0,0-.37-.21l.05-.16.43-.11a1.33,1.33,0,0,1,.45.52c.13.3.27.6.42.89s.2.36.29.54.31.6.48.89c.08.12.21.2.28.32a8.45,8.45,0,0,1,.49.82c.29.53.56,1.07.85,1.6.19.35.4.69.59,1a8.49,8.49,0,0,0,1.06,1.82s0,.1,0,.16Z" transform="translate(-0.12 -0.08)"/><path class="cls-151" d="M19.86,18.05a.67.67,0,0,0,.06.17.23.23,0,0,1,0,.33.17.17,0,0,0,0,.24,2,2,0,0,1,.56.83.93.93,0,0,0,.28.37,4,4,0,0,1,.5.59,2.35,2.35,0,0,1,.31.56,5.73,5.73,0,0,0,.56,1,.56.56,0,0,1,.09.17,5.76,5.76,0,0,0,.52,1c.19.36.42.7.62,1.05s.34.71.5,1.07a.81.81,0,0,0,.28.38,2.62,2.62,0,0,1-.21.91L24,26.55l-.5-.89a23.63,23.63,0,0,1-1.14-2.1c-.23-.48-.5-.93-.74-1.39L21,21.09,20.93,21c-.23-.34-.6-.58-.71-1a.47.47,0,0,0-.06-.09,7.7,7.7,0,0,0-1-1.13c.09-.19.17-.39.39-.47.05,0,.08-.09.13-.13A1,1,0,0,1,19.86,18.05Z" transform="translate(-0.12 -0.08)"/><path class="cls-152" d="M19.16,18.75a7.7,7.7,0,0,1,1,1.13.47.47,0,0,1,.06.09c.11.42.48.66.71,1l.07.12.57,1.08c.24.46.51.91.74,1.39a23.63,23.63,0,0,0,1.14,2.1l.5.89.05.15-.16.81c0-.06,0-.12,0-.16a8.49,8.49,0,0,1-1.06-1.82c-.19-.35-.4-.69-.59-1-.29-.53-.56-1.07-.85-1.6a8.45,8.45,0,0,0-.49-.82c-.07-.12-.2-.2-.28-.32-.17-.29-.32-.59-.48-.89s-.2-.35-.29-.54-.29-.59-.42-.89a1.33,1.33,0,0,0-.45-.52Z" transform="translate(-0.12 -0.08)"/><path class="cls-127" d="M25.61,24.23l-.11.37Z" transform="translate(-0.12 -0.08)"/><path class="cls-153" d="M3.9,24H4c.1.05.19.12.29.16s.42.18.63.26l-.2,0,.3.2s0,.06,0,.08a1.51,1.51,0,0,1,.53.82l.07.11c.08.14.16.28.23.43s.2.41.31.61a8.52,8.52,0,0,0,.48.83c.18.25.25.57.41.83a9.67,9.67,0,0,1,.55,1.12,1.21,1.21,0,0,0,.78.7c.14,0,.17.1.17.23V31c0,.13-.14.25-.06.4s0,0,0,.08L8,32.61c0-.06-.1-.14-.08-.18.08-.2,0-.39,0-.58a.45.45,0,0,0-.28-.37.42.42,0,0,1-.21-.26c-.09-.24-.21-.47-.31-.71a1.17,1.17,0,0,1-.06-.2,2.36,2.36,0,0,0-.11-.44c-.08-.21-.2-.41-.28-.63s-.4-.63-.55-1a3.36,3.36,0,0,0-.2-.43c-.17-.29-.36-.57-.52-.87s-.25-.55-.39-.82-.2-.32-.28-.48-.16-.34-.24-.51Z" transform="translate(-0.12 -0.08)"/><path class="cls-154" d="M8.57,31v-.53c0-.13,0-.2-.17-.23a1.21,1.21,0,0,1-.78-.7,9.67,9.67,0,0,0-.55-1.12c-.16-.26-.23-.58-.41-.83a8.52,8.52,0,0,1-.48-.83c-.11-.2-.2-.41-.31-.61s-.15-.29-.23-.43l-.07-.11A1.51,1.51,0,0,0,5,24.74s0-.06,0-.08a.75.75,0,0,0,.48.21h.72s.06,0,.09-.05h.11c.12,0,.2.06.18.21a.38.38,0,0,0,.07.22c.17.33.34.67.52,1l.73,1.37c.11.2.19.43.32.62a1.83,1.83,0,0,1,.31.89.75.75,0,0,0,.34.54,3.31,3.31,0,0,1,.33.32c-.13.34-.25.69-.38,1,0,0,0,.05-.06.08l0-.29Z" transform="translate(-0.12 -0.08)"/><path class="cls-155" d="M5,20.36l.48.21a4.08,4.08,0,0,1,.67,1.16.49.49,0,0,0,.11.18,3.45,3.45,0,0,1,.62,1c.05.07.07.16.12.24a.23.23,0,0,1,0,.25,2,2,0,0,1-1.18.27,1.3,1.3,0,0,0-.11-.35A9.81,9.81,0,0,1,5,22a2,2,0,0,1,.08-.48.62.62,0,0,0,0-.44.58.58,0,0,1,0-.48A.72.72,0,0,0,5,20.36Z" transform="translate(-0.12 -0.08)"/><path class="cls-156" d="M9.22,30a3.31,3.31,0,0,0-.33-.32.75.75,0,0,1-.34-.54,1.83,1.83,0,0,0-.31-.89c-.13-.19-.21-.42-.32-.62l-.73-1.37c-.18-.32-.35-.66-.52-1A.38.38,0,0,1,6.6,25c0-.15-.06-.19-.18-.21l.11-.05.59-.22.32-.16.2,0c-.16.12-.11.22,0,.32l.08.13.8,1.51.44.82a2.46,2.46,0,0,1,.17.27,2.33,2.33,0,0,1,.35.79c.27.05.27.05.22.34,0,0,0,.08.06.13l-.2.59c-.08.21-.17.43-.26.65h0Z" transform="translate(-0.12 -0.08)"/><path class="cls-157" d="M9.73,28.74s-.07-.1-.06-.13c.05-.29.05-.29-.22-.34a2.33,2.33,0,0,0-.35-.79,2.46,2.46,0,0,0-.17-.27l-.44-.82-.8-1.51-.08-.13c-.08-.1-.13-.2,0-.32l-.2,0,.8-.81a.17.17,0,0,1,.25.07c.09.16.17.32.25.49s.16.35.25.53.32.63.49.94.37.66.55,1a2.28,2.28,0,0,1,.2.45c0,.06,0,.12.11.12v.11Z" transform="translate(-0.12 -0.08)"/><path class="cls-113" d="M9.27,30l.26-.65a3.1,3.1,0,0,1,0,.43s-.08.07-.12.11H9.35A.39.39,0,0,0,9.27,30Z" transform="translate(-0.12 -0.08)"/><path class="cls-158" d="M5.78,23.69A2,2,0,0,0,7,23.42c.12,0,.19-.07.27-.13l.58-.36a.47.47,0,0,1,.17,0,1,1,0,0,1-.32.5,4.43,4.43,0,0,1-.58.49,1.65,1.65,0,0,1-.67.31,3.92,3.92,0,0,0-.49.13v.06h.28a2.3,2.3,0,0,1-.51.1c-.26,0-.52,0-.78,0s-.42-.16-.63-.26S4.1,24.07,4,24l-.09-.17.47.24a.83.83,0,0,0,.75,0A.27.27,0,0,0,5.2,24C5.31,23.72,5.53,23.69,5.78,23.69Z" transform="translate(-0.12 -0.08)"/><path class="cls-159" d="M11.65,23.91c-.08.22-.15.45-.23.67a1.08,1.08,0,0,1-.11.18l0-.12-.2.27a.83.83,0,0,0-.31-.06c-.16,0-.21-.05-.26-.16-.32-.72-.66-1.44-1-2.17a3.52,3.52,0,0,1-.36-.82s0,0-.08-.05l.21-.59a3.88,3.88,0,0,0,.43-1.13c.11-.06.18-.05.22.09l.18.55c.18.49.35,1,.53,1.48s.28.78.45,1.16a2.4,2.4,0,0,0,.38.49l.21-.2,0,.19Z" transform="translate(-0.12 -0.08)"/><path class="cls-160" d="M12,24.22l.17-.53c.09-.2.18-.4.26-.6l.27-.64.06.14c0,.06,0,.14.08.16.23.12.24.36.29.57s.11.53.17.8l-.24.16c-.12.09-.23.22-.41.22,0,0,0,0,0,0-.21,0-.36-.24-.6-.2Z" transform="translate(-0.12 -0.08)"/><path class="cls-161" d="M6.21,24.39H5.93v-.06a3.92,3.92,0,0,1,.49-.13,1.65,1.65,0,0,0,.67-.31,4.43,4.43,0,0,0,.58-.49,1,1,0,0,0,.32-.5l.27-.49.2-.25,0,.15,0,.1c-.12.23-.23.46-.35.68a3,3,0,0,1-.93,1,2.06,2.06,0,0,1-.26.12l-.49.17Z" transform="translate(-0.12 -0.08)"/><path class="cls-162" d="M8.45,22.4l0-.1.42-1L9,21c.19-.14.2-.14.28.06l-.21.59a1.74,1.74,0,0,0-.11.18l-.43,1c0-.15,0-.3-.05-.45Z" transform="translate(-0.12 -0.08)"/><path class="cls-163" d="M12,24.22l0,.07c.24,0,.39.16.6.2,0,0,0,0,0,0,0,.31,0,.61-.06.92a.44.44,0,0,1,0,.15c-.36.08-.55.37-.78.63-.44-.16-.51.23-.67.52l0-.13h0l.11-.27c.26-.68.53-1.36.8-2Z" transform="translate(-0.12 -0.08)"/><path class="cls-164" d="M8.57,22.83l.43-1a1.74,1.74,0,0,1,.11-.18s.08,0,.08.05a3.52,3.52,0,0,0,.36.82c.31.73.65,1.45,1,2.17.05.11.1.21.26.16a.83.83,0,0,1,.31.06l.2-.27,0,.12-.42,1.12c-.18.44-.36.87-.55,1.3-.07,0-.08-.06-.11-.12a2.28,2.28,0,0,0-.2-.45c-.18-.34-.37-.66-.55-1S9.15,25,9,24.67s-.16-.36-.25-.53-.16-.33-.25-.49a.17.17,0,0,0-.25-.07,1.54,1.54,0,0,0,.08-.19C8.41,23.2,8.49,23,8.57,22.83Z" transform="translate(-0.12 -0.08)"/><path class="cls-132" d="M11.1,26.32l-.11.27Z" transform="translate(-0.12 -0.08)"/><path class="cls-165" d="M19.16,18.75l-.27.16-.43.11-.43.1-.17-.4.17-.19.32-.16c.34-.05.69-.1,1-.17a.54.54,0,0,0,.23-.15c.11-.1.22-.17.35-.06l-.1.06a1,1,0,0,0-.18.1c-.05,0-.08.11-.13.13C19.33,18.36,19.25,18.56,19.16,18.75Z" transform="translate(-0.12 -0.08)"/><path class="cls-141" d="M18.35,18.37l-.32.16c-.29,0-.43.28-.65.41l-.1.07a1.74,1.74,0,0,1,.75-.79c.33-.19.67-.35,1-.52a.24.24,0,0,0,.06-.08c.23-.12.47,0,.71,0-.13,0-.27.05-.24.21l-1,.26v.17Z" transform="translate(-0.12 -0.08)"/><path class="cls-166" d="M18.41,19.18a.34.34,0,0,1,.37.21,2.92,2.92,0,0,1,.19.49,1.11,1.11,0,0,0,.36.61,1.59,1.59,0,0,1,.41,1,.88.88,0,0,0,.34.7,2.93,2.93,0,0,1,.73.91,12.62,12.62,0,0,1,.89,1.76c.15.31.35.59.53.89.05.08.09.16.13.24l.69,1.23c.16.29.33.57.48.87a.71.71,0,0,1,0,.26l-.33,1.12a2.55,2.55,0,0,0-.34-.68c-.15-.26-.27-.52-.42-.78s-.4-.67-.6-1a.43.43,0,0,1,0-.07c-.22-.42-.44-.85-.67-1.27-.36-.67-.73-1.33-1.1-2-.13-.24-.25-.49-.4-.72a5.93,5.93,0,0,0-.48-.64L19,22.08c0-.07,0-.14-.05-.21a1.05,1.05,0,0,1,0-.47.65.65,0,0,0-.16-.59l-.53-.67a1.39,1.39,0,0,0,0-.35.3.3,0,0,1,0-.38C18.3,19.34,18.35,19.25,18.41,19.18Z" transform="translate(-0.12 -0.08)"/><path class="cls-102" d="M23.89,28.53l-.1.07v-.16h0l.05.09Z" transform="translate(-0.12 -0.08)"/><path class="cls-167" d="M6.21,24.39l.21-.05a.36.36,0,0,1-.1.11l-.52.13.21.24h.3s-.06.05-.09.05H5.5A.75.75,0,0,1,5,24.66l-.3-.2.2,0c.26,0,.52,0,.78,0A2.3,2.3,0,0,0,6.21,24.39Z" transform="translate(-0.12 -0.08)"/><path class="cls-168" d="M6.31,24.82H6l-.21-.24.52-.13a.36.36,0,0,0,.1-.11l.49-.17a2.06,2.06,0,0,0,.26-.12c0,.07-.13.17-.12.18s0,.21-.12.32h.19l-.59.22-.11.05Z" transform="translate(-0.12 -0.08)"/><path class="cls-169" d="M7.12,24.55H6.93c.07-.11.26-.17.12-.32s.08-.11.12-.18a3,3,0,0,0,.93-1c.12-.22.23-.45.35-.68l.07,0c0,.15,0,.3.05.45s-.16.37-.25.56a1.54,1.54,0,0,1-.08.19l-.8.81Z" transform="translate(-0.12 -0.08)"/></g></svg>